<svg width="438" height="259" viewBox="0 0 438 259" fill="none" xmlns="http://www.w3.org/2000/svg">
<path d="M4.95996 55.017C17.4545 36.8 44.8595 53.234 55.0255 27.922C66.6455 -1.0076 33.4525 -0.911002 36.6505 13.8174C39.8495 28.546 81.5185 10.887 94.8685 32.407C110.664 57.87 69.4935 80.34 60.5885 69.358C51.6835 58.375 96.4565 35.359 207.889 54.609C307.255 71.775 380.843 15.9078 368.006 4.4865C359.308 -3.2525 341.897 10.7279 365.074 20.1626C378.841 25.7672 416.175 21.7974 419.476 41.515C423.383 64.853 356.591 77.261 363.863 54.609C366.496 46.407 384.618 46.275 400.006 56.422C404.375 59.304 415.661 70.949 429.013 69.358" stroke="white" stroke-width="4.47845" stroke-linecap="square"/>
<path d="M6.7737 136.62C2.7151 136.62 0.3079 134.717 0.112 131.47H3.3029C3.4148 133.065 4.7864 133.905 6.6057 133.905C8.2852 133.905 9.1808 133.261 9.1808 132.114C9.1808 130.966 8.2292 130.742 6.9416 130.322L4.9823 129.679C2.5191 128.867 0.391899 128.027 0.391899 125.284C0.391899 122.653 2.4072 120.918 5.962 120.918C9.4048 120.918 11.756 122.737 12.1478 126.096H9.0129C8.845 124.416 7.6414 123.633 5.934 123.633C4.4785 123.633 3.6388 124.248 3.6388 125.256C3.6388 126.404 4.9263 126.712 5.99 127.075L7.7813 127.663C10.7203 128.643 12.4837 129.539 12.4837 132.198C12.4837 134.941 10.4124 136.62 6.7737 136.62ZM19.1128 136.508C15.698 136.508 13.4588 134.857 13.4868 132.086C13.5148 128.615 16.9576 127.887 19.8406 127.551C22.0798 127.299 23.7312 127.215 23.7592 126.04C23.7312 124.584 22.6116 123.633 20.7083 123.633C18.749 123.633 17.3494 124.696 17.1535 126.236H13.8227C14.1305 123.101 16.9296 120.918 20.7643 120.918C24.7669 120.918 26.9781 123.101 26.9781 126.264V132.981C26.9781 133.401 27.202 133.625 27.7059 133.625H28.5176V136.2H26.9501C25.4386 136.2 24.515 135.584 24.263 134.465C24.2071 134.325 24.1511 134.129 24.1231 133.961C23.2554 135.556 21.632 136.508 19.1128 136.508ZM19.7846 133.905C22.0518 133.905 23.7592 132.618 23.7592 130.63V128.559C23.1994 129.427 21.7719 129.623 20.2044 129.818C18.3571 130.042 16.8176 130.294 16.8176 131.862C16.8176 133.149 17.8533 133.905 19.7846 133.905ZM31.5088 119.378C30.3052 119.378 29.3816 118.426 29.3816 117.223C29.3816 116.019 30.3052 115.096 31.5088 115.096C32.7404 115.096 33.6363 116.019 33.6363 117.223C33.6363 118.426 32.7404 119.378 31.5088 119.378ZM33.1603 136.2H29.8574V121.365H33.1603V136.2ZM39.0463 136.2H35.7433V115.208H39.0463V136.2ZM57.6943 136.62C53.6353 136.62 51.2283 134.717 51.0323 131.47H54.2233C54.3353 133.065 55.7073 133.905 57.5263 133.905C59.2053 133.905 60.1013 133.261 60.1013 132.114C60.1013 130.966 59.1493 130.742 57.8623 130.322L55.9033 129.679C53.4393 128.867 51.3123 128.027 51.3123 125.284C51.3123 122.653 53.3273 120.918 56.8823 120.918C60.3253 120.918 62.6763 122.737 63.0683 126.096H59.9333C59.7653 124.416 58.5623 123.633 56.8543 123.633C55.3993 123.633 54.5593 124.248 54.5593 125.256C54.5593 126.404 55.8473 126.712 56.9103 127.075L58.7023 127.663C61.6413 128.643 63.4043 129.539 63.4043 132.198C63.4043 134.941 61.3333 136.62 57.6943 136.62ZM70.0333 136.508C66.6183 136.508 64.3793 134.857 64.4073 132.086C64.4353 128.615 67.8783 127.887 70.7613 127.551C73.0003 127.299 74.6523 127.215 74.6793 126.04C74.6523 124.584 73.5323 123.633 71.6293 123.633C69.6693 123.633 68.2703 124.696 68.0743 126.236H64.7433C65.0513 123.101 67.8503 120.918 71.6853 120.918C75.6873 120.918 77.8983 123.101 77.8983 126.264V132.981C77.8983 133.401 78.1223 133.625 78.6263 133.625H79.4383V136.2H77.8703C76.3593 136.2 75.4353 135.584 75.1833 134.465C75.1273 134.325 75.0713 134.129 75.0433 133.961C74.1763 135.556 72.5523 136.508 70.0333 136.508ZM70.7053 133.905C72.9723 133.905 74.6793 132.618 74.6793 130.63V128.559C74.1203 129.427 72.6923 129.623 71.1253 129.818C69.2773 130.042 67.7383 130.294 67.7383 131.862C67.7383 133.149 68.7743 133.905 70.7053 133.905ZM82.4293 119.378C81.2263 119.378 80.3023 118.426 80.3023 117.223C80.3023 116.019 81.2263 115.096 82.4293 115.096C83.6613 115.096 84.5563 116.019 84.5563 117.223C84.5563 118.426 83.6613 119.378 82.4293 119.378ZM84.0813 136.2H80.7783V121.365H84.0813V136.2ZM89.9663 136.2H86.6643V115.208H89.9663V136.2ZM109.594 136.62C104.752 136.62 101.925 133.149 101.925 128.671C101.925 123.801 105.2 120.918 109.51 120.918C113.569 120.918 116.312 123.409 116.592 127.103H113.345C113.037 125.06 111.582 123.745 109.482 123.745C106.963 123.745 105.284 125.648 105.284 128.671C105.284 131.918 107.131 133.793 109.594 133.793C111.61 133.793 113.009 132.506 113.345 130.378H116.592C116.2 134.213 113.541 136.62 109.594 136.62ZM121.683 136.2H118.38V115.208H121.683V136.2ZM129.581 136.62C126.055 136.62 124.011 134.409 124.011 131.19V121.365H127.314V131.05C127.314 132.729 128.49 133.709 130.253 133.709C132.52 133.709 133.864 132.226 133.892 130.322V121.365H137.195V136.2H134.536L134.284 134.045C133.416 135.64 131.653 136.62 129.581 136.62ZM147.972 136.62C145.621 136.62 143.661 135.445 142.738 133.569L142.43 136.2H139.771V115.208H143.074V123.297C144.137 121.841 145.901 120.918 148 120.918C151.919 120.918 154.69 124.108 154.69 128.699C154.69 133.373 151.919 136.62 147.972 136.62ZM147.244 133.821C149.651 133.821 151.303 131.722 151.303 128.699C151.303 125.76 149.651 123.717 147.244 123.717C144.809 123.717 143.074 125.732 143.074 128.615C143.074 131.666 144.809 133.821 147.244 133.821ZM168.176 118.874C167.197 118.874 166.441 118.119 166.441 117.139C166.441 116.159 167.197 115.431 168.176 115.431C169.156 115.431 169.884 116.159 169.884 117.139C169.884 118.119 169.156 118.874 168.176 118.874ZM169.324 136.2H167.001V121.365H169.324V136.2ZM177.826 136.508C174.299 136.508 171.696 134.661 171.5 131.526H173.768C173.935 133.457 175.699 134.521 177.938 134.521C180.037 134.521 181.045 133.709 181.045 132.226C181.045 130.826 179.953 130.518 178.414 129.986L176.259 129.259C174.075 128.531 171.892 127.859 171.892 125.172C171.892 122.653 173.852 121.03 177.098 121.03C180.373 121.03 182.64 122.793 183.004 126.096H180.737C180.485 124.024 179.03 123.017 177.014 123.017C175.195 123.017 174.131 123.829 174.131 125.116C174.131 126.656 175.755 126.963 176.986 127.383L179.002 128.055C181.717 128.951 183.34 129.874 183.34 132.338C183.34 134.941 181.437 136.508 177.826 136.508ZM200.497 136.424C197.138 136.424 194.983 134.689 194.983 131.974C194.983 128.559 198.286 127.915 201.253 127.607C203.52 127.383 205.479 127.411 205.507 126.208C205.479 124.332 203.94 123.017 201.701 123.017C199.545 123.017 197.866 124.22 197.614 125.984H195.319C195.599 123.073 198.23 121.03 201.757 121.03C205.423 121.03 207.775 123.213 207.775 126.348V133.569C207.775 134.045 208.026 134.297 208.53 134.297H209.37V136.2H208.054C206.459 136.2 205.619 135.473 205.619 134.101V133.653C204.752 135.361 203.072 136.424 200.497 136.424ZM200.833 134.437C203.604 134.437 205.507 132.673 205.507 130.21V128.279C204.864 129.147 203.212 129.315 201.393 129.511C199.349 129.734 197.306 130.014 197.306 131.918C197.306 133.457 198.706 134.437 200.833 134.437ZM228.122 136.508C223.307 136.508 220.732 132.981 220.732 128.699C220.732 123.717 224.007 121.03 228.038 121.03C231.761 121.03 234.42 123.269 234.839 127.075H232.572C232.18 124.612 230.473 123.045 227.982 123.045C225.043 123.045 223.084 125.2 223.084 128.699C223.084 132.478 225.379 134.493 228.15 134.493C230.529 134.493 232.152 132.981 232.572 130.406H234.839C234.42 134.241 231.956 136.508 228.122 136.508ZM239.456 136.2H237.133V115.208H239.456V136.2ZM249.018 136.508C244.26 136.508 241.74 133.121 241.74 128.643C241.74 123.689 244.987 121.03 249.018 121.03C253.748 121.03 256.295 124.444 256.295 128.643C256.295 133.765 253.188 136.508 249.018 136.508ZM249.018 134.493C252.181 134.493 253.916 131.862 253.916 128.643C253.916 125.312 251.985 123.045 249.018 123.045C246.051 123.045 244.12 125.312 244.12 128.643C244.12 132.45 246.331 134.493 249.018 134.493ZM264.036 136.508C260.51 136.508 257.907 134.661 257.711 131.526H259.978C260.146 133.457 261.909 134.521 264.148 134.521C266.248 134.521 267.255 133.709 267.255 132.226C267.255 130.826 266.164 130.518 264.624 129.986L262.469 129.259C260.286 128.531 258.102 127.859 258.102 125.172C258.102 122.653 260.062 121.03 263.309 121.03C266.584 121.03 268.851 122.793 269.215 126.096H266.947C266.696 124.024 265.24 123.017 263.225 123.017C261.405 123.017 260.342 123.829 260.342 125.116C260.342 126.656 261.965 126.963 263.197 127.383L265.212 128.055C267.927 128.951 269.551 129.874 269.551 132.338C269.551 134.941 267.647 136.508 264.036 136.508ZM278.118 136.508C273.723 136.508 270.812 133.289 270.812 128.839C270.812 123.773 274.087 121.03 277.838 121.03C281.924 121.03 284.555 123.773 284.639 128.531V129.175H273.135C273.275 132.338 275.123 134.493 278.118 134.493C280.189 134.493 281.7 133.457 282.316 131.526H284.583C283.912 134.577 281.504 136.508 278.118 136.508ZM273.275 127.243H282.204C281.784 124.64 280.217 123.045 277.838 123.045C275.486 123.045 273.751 124.584 273.275 127.243ZM303.842 136.508C299.028 136.508 296.453 132.981 296.453 128.699C296.453 123.717 299.728 121.03 303.758 121.03C307.481 121.03 310.14 123.269 310.56 127.075H308.293C307.901 124.612 306.193 123.045 303.702 123.045C300.763 123.045 298.804 125.2 298.804 128.699C298.804 132.478 301.099 134.493 303.87 134.493C306.249 134.493 307.873 132.981 308.293 130.406H310.56C310.14 134.241 307.677 136.508 303.842 136.508ZM319.291 136.508C314.533 136.508 312.014 133.121 312.014 128.643C312.014 123.689 315.261 121.03 319.291 121.03C324.022 121.03 326.569 124.444 326.569 128.643C326.569 133.765 323.462 136.508 319.291 136.508ZM319.291 134.493C322.454 134.493 324.189 131.862 324.189 128.643C324.189 125.312 322.258 123.045 319.291 123.045C316.324 123.045 314.393 125.312 314.393 128.643C314.393 132.45 316.604 134.493 319.291 134.493ZM331.091 136.2H328.768V121.365H330.615L330.839 123.661C331.847 122.065 333.778 121.03 335.905 121.03C338.144 121.03 339.824 122.177 340.58 123.968C341.531 122.233 343.575 121.03 345.842 121.03C348.977 121.03 350.992 123.241 350.992 126.264V136.2H348.669V126.348C348.669 124.36 347.437 123.073 345.45 123.073C342.679 123.073 341.055 124.92 341.027 127.187V136.2H338.732V126.348C338.732 124.36 337.501 123.073 335.513 123.073C332.742 123.073 331.119 124.92 331.091 127.187V136.2ZM356.109 136.2H353.786V121.365H355.634L355.857 123.661C356.865 122.065 358.796 121.03 360.924 121.03C363.163 121.03 364.842 122.177 365.598 123.968C366.55 122.233 368.593 121.03 370.86 121.03C373.995 121.03 376.01 123.241 376.01 126.264V136.2H373.687V126.348C373.687 124.36 372.456 123.073 370.468 123.073C367.697 123.073 366.074 124.92 366.046 127.187V136.2H363.751V126.348C363.751 124.36 362.519 123.073 360.532 123.073C357.761 123.073 356.137 124.92 356.109 127.187V136.2ZM384.207 136.508C380.596 136.508 378.525 134.297 378.525 131.274V121.365H380.848V131.19C380.848 133.317 382.332 134.465 384.431 134.465C387.202 134.465 388.713 132.618 388.741 130.378V121.365H391.064V136.2H389.217L389.021 133.961C388.042 135.64 386.25 136.508 384.207 136.508ZM396.361 136.2H394.038V121.365H395.885L396.109 123.633C397.117 122.065 399.048 121.03 401.259 121.03C404.45 121.03 406.577 123.101 406.577 126.376V136.2H404.254V126.46C404.254 124.388 402.911 123.073 400.671 123.073C398.012 123.073 396.389 124.92 396.361 127.187V136.2ZM410.555 118.874C409.576 118.874 408.82 118.119 408.82 117.139C408.82 116.159 409.576 115.431 410.555 115.431C411.535 115.431 412.263 116.159 412.263 117.139C412.263 118.119 411.535 118.874 410.555 118.874ZM411.703 136.2H409.38V121.365H411.703V136.2ZM422.388 136.2H420.737C417.854 136.2 416.314 134.717 416.314 131.974V123.325H413.571V121.365H416.314V116.299H418.638V121.365H422.64V123.325H418.638V131.974C418.638 133.457 419.365 134.241 420.737 134.241H422.388V136.2ZM426.33 141.798H423.951V139.839H426.33C427.841 139.839 428.485 139.307 428.821 138.412L429.633 136.2H429.073L423.195 121.365H425.686L430.5 133.877L435.147 121.365H437.526L430.864 139.307C430.248 140.931 428.877 141.798 426.33 141.798ZM8.817 165.2H7.1655C4.2825 165.2 2.7431 163.717 2.7431 160.974V152.325H0V150.365H2.7431V145.299H5.0663V150.365H9.0689V152.325H5.0663V160.974C5.0663 162.457 5.794 163.241 7.1655 163.241H8.817V165.2ZM13.3742 165.2H11.051V144.208H13.3742V152.269C14.4378 150.925 16.2572 150.03 18.2725 150.03C21.4634 150.03 23.5906 152.101 23.5906 155.376V165.2H21.2674V155.46C21.2674 153.388 19.9239 152.073 17.8246 152.073C15.0256 152.073 13.4021 153.92 13.3742 156.187V165.2ZM31.1775 165.424C27.8187 165.424 25.6634 163.689 25.6634 160.974C25.6634 157.559 28.9663 156.915 31.9333 156.607C34.2003 156.383 36.1603 156.411 36.1883 155.208C36.1603 153.332 34.6203 152.017 32.3811 152.017C30.2259 152.017 28.5464 153.22 28.2945 154.984H25.9993C26.2792 152.073 28.9103 150.03 32.4371 150.03C36.1043 150.03 38.4553 152.213 38.4553 155.348V162.569C38.4553 163.045 38.7073 163.297 39.2103 163.297H40.0503V165.2H38.7353C37.1393 165.2 36.2993 164.473 36.2993 163.101V162.653C35.4323 164.361 33.7523 165.424 31.1775 165.424ZM31.5134 163.437C34.2843 163.437 36.1883 161.673 36.1883 159.21V157.279C35.5443 158.147 33.8923 158.315 32.0732 158.511C30.0299 158.734 27.9866 159.014 27.9866 160.918C27.9866 162.457 29.3862 163.437 31.5134 163.437ZM49.1583 165.2H47.5063C44.6233 165.2 43.0843 163.717 43.0843 160.974V152.325H40.3413V150.365H43.0843V145.299H45.4073V150.365H49.4103V152.325H45.4073V160.974C45.4073 162.457 46.1353 163.241 47.5063 163.241H49.1583V165.2ZM73.3173 165.424C69.9583 165.424 67.8033 163.689 67.8033 160.974C67.8033 157.559 71.1063 156.915 74.0733 156.607C76.3403 156.383 78.2993 156.411 78.3273 155.208C78.2993 153.332 76.7603 152.017 74.5213 152.017C72.3653 152.017 70.6863 153.22 70.4343 154.984H68.1393C68.4193 152.073 71.0503 150.03 74.5773 150.03C78.2433 150.03 80.5943 152.213 80.5943 155.348V162.569C80.5943 163.045 80.8463 163.297 81.3503 163.297H82.1903V165.2H80.8743C79.2793 165.2 78.4393 164.473 78.4393 163.101V162.653C77.5713 164.361 75.8923 165.424 73.3173 165.424ZM73.6533 163.437C76.4243 163.437 78.3273 161.673 78.3273 159.21V157.279C77.6833 158.147 76.0323 158.315 74.2133 158.511C72.1693 158.734 70.1263 159.014 70.1263 160.918C70.1263 162.457 71.5263 163.437 73.6533 163.437ZM91.2973 165.2H89.6463C86.7633 165.2 85.2243 163.717 85.2243 160.974V152.325H82.4813V150.365H85.2243V145.299H87.5473V150.365H93.3133V145.299H95.6363V150.365H99.6393V152.325H95.6363V160.974C95.6363 162.457 96.3643 163.241 97.7353 163.241H99.3873V165.2H97.7353C94.8523 165.2 93.3133 163.717 93.3133 160.974V152.325H87.5473V160.974C87.5473 162.457 88.2753 163.241 89.6463 163.241H91.2973V165.2ZM103.862 165.2H101.538V150.365H103.386L103.666 153.192C104.617 151.289 106.353 150.281 108.816 150.281H109.32V152.577H108.816C105.681 152.577 103.862 154.368 103.862 157.419V165.2ZM115.599 165.424C112.24 165.424 110.085 163.689 110.085 160.974C110.085 157.559 113.388 156.915 116.354 156.607C118.622 156.383 120.581 156.411 120.609 155.208C120.581 153.332 119.042 152.017 116.802 152.017C114.647 152.017 112.968 153.22 112.716 154.984H110.421C110.7 152.073 113.332 150.03 116.858 150.03C120.525 150.03 122.876 152.213 122.876 155.348V162.569C122.876 163.045 123.128 163.297 123.632 163.297H124.472V165.2H123.156C121.561 165.2 120.721 164.473 120.721 163.101V162.653C119.853 164.361 118.174 165.424 115.599 165.424ZM115.935 163.437C118.706 163.437 120.609 161.673 120.609 159.21V157.279C119.965 158.147 118.314 158.315 116.494 158.511C114.451 158.734 112.408 159.014 112.408 160.918C112.408 162.457 113.807 163.437 115.935 163.437ZM132.87 165.508C128.056 165.508 125.481 161.981 125.481 157.699C125.481 152.717 128.756 150.03 132.786 150.03C136.509 150.03 139.168 152.269 139.588 156.075H137.321C136.929 153.612 135.222 152.045 132.73 152.045C129.791 152.045 127.832 154.2 127.832 157.699C127.832 161.478 130.127 163.493 132.898 163.493C135.277 163.493 136.901 161.981 137.321 159.406H139.588C139.168 163.241 136.705 165.508 132.87 165.508ZM149.14 165.2H147.489C144.606 165.2 143.066 163.717 143.066 160.974V152.325H140.323V150.365H143.066V145.299H145.389V150.365H149.392V152.325H145.389V160.974C145.389 162.457 146.117 163.241 147.489 163.241H149.14V165.2ZM156.832 165.508C153.305 165.508 150.702 163.661 150.506 160.526H152.774C152.942 162.457 154.705 163.521 156.944 163.521C159.043 163.521 160.051 162.709 160.051 161.226C160.051 159.826 158.959 159.518 157.42 158.986L155.265 158.259C153.082 157.531 150.898 156.859 150.898 154.172C150.898 151.653 152.858 150.03 156.104 150.03C159.379 150.03 161.647 151.793 162.01 155.096H159.743C159.491 153.024 158.036 152.017 156.021 152.017C154.201 152.017 153.137 152.829 153.137 154.116C153.137 155.656 154.761 155.963 155.993 156.383L158.008 157.055C160.723 157.951 162.346 158.874 162.346 161.338C162.346 163.941 160.443 165.508 156.832 165.508ZM186.373 165.424C183.014 165.424 180.859 163.689 180.859 160.974C180.859 157.559 184.162 156.915 187.129 156.607C189.396 156.383 191.355 156.411 191.383 155.208C191.355 153.332 189.816 152.017 187.576 152.017C185.421 152.017 183.742 153.22 183.49 154.984H181.195C181.474 152.073 184.106 150.03 187.632 150.03C191.299 150.03 193.65 152.213 193.65 155.348V162.569C193.65 163.045 193.902 163.297 194.406 163.297H195.246V165.2H193.93C192.335 165.2 191.495 164.473 191.495 163.101V162.653C190.627 164.361 188.948 165.424 186.373 165.424ZM186.709 163.437C189.48 163.437 191.383 161.673 191.383 159.21V157.279C190.739 158.147 189.088 158.315 187.268 158.511C185.225 158.734 183.182 159.014 183.182 160.918C183.182 162.457 184.581 163.437 186.709 163.437ZM199.334 165.2H197.011V150.365H198.858L199.082 152.633C200.09 151.065 202.021 150.03 204.232 150.03C207.423 150.03 209.55 152.101 209.55 155.376V165.2H207.227V155.46C207.227 153.388 205.884 152.073 203.644 152.073C200.985 152.073 199.362 153.92 199.334 156.187V165.2ZM218.343 165.508C214.368 165.508 211.597 162.317 211.597 157.699C211.597 153.164 214.34 150.03 218.315 150.03C220.554 150.03 222.429 151.009 223.493 152.577V144.208H225.816V165.2H223.969L223.717 162.345C222.737 164.277 220.778 165.508 218.343 165.508ZM218.707 163.493C221.534 163.493 223.493 161.086 223.493 157.643C223.493 154.312 221.59 152.017 218.847 152.017C215.992 152.017 214.004 154.34 214.004 157.699C214.004 161.114 215.936 163.493 218.707 163.493ZM253.707 165.508C251.271 165.508 249.284 164.305 248.277 162.373L248.025 165.2H246.177V144.208H248.5V152.689C249.592 151.065 251.467 150.03 253.707 150.03C257.625 150.03 260.368 153.164 260.368 157.699C260.368 162.317 257.625 165.508 253.707 165.508ZM253.343 163.493C256.086 163.493 257.961 161.114 257.961 157.699C257.961 154.368 256.086 152.045 253.315 152.045C250.516 152.045 248.5 154.312 248.5 157.587C248.5 161.058 250.516 163.493 253.343 163.493ZM264.907 165.2H262.584V150.365H264.431L264.711 153.192C265.662 151.289 267.398 150.281 269.861 150.281H270.365V152.577H269.861C266.726 152.577 264.907 154.368 264.907 157.419V165.2ZM273.361 147.874C272.381 147.874 271.626 147.119 271.626 146.139C271.626 145.159 272.381 144.431 273.361 144.431C274.341 144.431 275.069 145.159 275.069 146.139C275.069 147.119 274.341 147.874 273.361 147.874ZM274.509 165.2H272.186V150.365H274.509V165.2ZM279.792 165.2H277.469V150.365H279.316L279.54 152.633C280.548 151.065 282.479 150.03 284.69 150.03C287.881 150.03 290.008 152.101 290.008 155.376V165.2H287.685V155.46C287.685 153.388 286.342 152.073 284.102 152.073C281.443 152.073 279.82 153.92 279.792 156.187V165.2ZM299.277 171.134C295.274 171.134 292.559 169.203 292.559 166.068H294.882C294.882 167.831 296.674 169.175 299.277 169.175C302.328 169.175 303.923 167.356 303.923 164.808V162.401C302.887 163.941 301.096 164.948 298.829 164.948C294.882 164.948 292.055 161.925 292.055 157.559C292.055 153.108 294.91 150.03 298.829 150.03C301.208 150.03 303.139 151.149 304.147 152.94L304.399 150.365H306.218V164.808C306.218 168.559 303.699 171.134 299.277 171.134ZM299.165 162.933C301.964 162.933 303.923 160.694 303.923 157.475C303.923 154.284 301.964 152.045 299.165 152.045C296.394 152.045 294.462 154.284 294.462 157.531C294.462 160.722 296.394 162.933 299.165 162.933ZM314.734 165.508C311.207 165.508 308.604 163.661 308.408 160.526H310.675C310.843 162.457 312.607 163.521 314.846 163.521C316.945 163.521 317.953 162.709 317.953 161.226C317.953 159.826 316.861 159.518 315.322 158.986L313.166 158.259C310.983 157.531 308.8 156.859 308.8 154.172C308.8 151.653 310.759 150.03 314.006 150.03C317.281 150.03 319.548 151.793 319.912 155.096H317.645C317.393 153.024 315.937 152.017 313.922 152.017C312.103 152.017 311.039 152.829 311.039 154.116C311.039 155.656 312.663 155.963 313.894 156.383L315.909 157.055C318.625 157.951 320.248 158.874 320.248 161.338C320.248 163.941 318.345 165.508 314.734 165.508ZM3.4148 194.2H1.0916V179.365H2.939L3.1629 181.633C4.1706 180.065 6.1019 179.03 8.3131 179.03C11.504 179.03 13.6313 181.101 13.6313 184.376V194.2H11.3081V184.46C11.3081 182.388 9.9646 181.073 7.7254 181.073C5.0663 181.073 3.4428 182.92 3.4148 185.187V194.2ZM22.9836 194.508C18.5891 194.508 15.6781 191.289 15.6781 186.839C15.6781 181.773 18.953 179.03 22.7037 179.03C26.7903 179.03 29.4214 181.773 29.5053 186.531V187.175H18.0013C18.1413 190.338 19.9886 192.493 22.9836 192.493C25.0549 192.493 26.5663 191.457 27.1821 189.526H29.4494C28.7776 192.577 26.3704 194.508 22.9836 194.508ZM18.1413 185.243H27.0702C26.6503 182.64 25.0829 181.045 22.7037 181.045C20.3525 181.045 18.6171 182.584 18.1413 185.243ZM37.1563 194.2H34.5813L30.1865 179.365H32.5657L35.9803 191.317L39.2833 179.365H41.2983L44.6013 191.261L47.9883 179.365H50.3673L45.9733 194.2H43.4263L40.2913 182.892L37.1563 194.2ZM59.5973 194.508C57.1623 194.508 55.1743 193.305 54.1673 191.373L53.9153 194.2H52.0673V173.208H54.3913V181.689C55.4823 180.065 57.3583 179.03 59.5973 179.03C63.5153 179.03 66.2593 182.164 66.2593 186.699C66.2593 191.317 63.5153 194.508 59.5973 194.508ZM59.2333 192.493C61.9763 192.493 63.8513 190.114 63.8513 186.699C63.8513 183.368 61.9763 181.045 59.2053 181.045C56.4063 181.045 54.3913 183.312 54.3913 186.587C54.3913 190.058 56.4063 192.493 59.2333 192.493ZM69.6493 176.874C68.6703 176.874 67.9143 176.119 67.9143 175.139C67.9143 174.159 68.6703 173.431 69.6493 173.431C70.6293 173.431 71.3573 174.159 71.3573 175.139C71.3573 176.119 70.6293 176.874 69.6493 176.874ZM70.7973 194.2H68.4743V179.365H70.7973V194.2ZM80.3073 194.508C75.9123 194.508 73.0013 191.289 73.0013 186.839C73.0013 181.773 76.2763 179.03 80.0273 179.03C84.1133 179.03 86.7443 181.773 86.8283 186.531V187.175H75.3243C75.4643 190.338 77.3123 192.493 80.3073 192.493C82.3783 192.493 83.8893 191.457 84.5053 189.526H86.7723C86.1013 192.577 83.6933 194.508 80.3073 194.508ZM75.4643 185.243H84.3933C83.9733 182.64 82.4063 181.045 80.0273 181.045C77.6763 181.045 75.9403 182.584 75.4643 185.243ZM107.707 194.508C104.18 194.508 101.577 192.661 101.381 189.526H103.648C103.816 191.457 105.58 192.521 107.819 192.521C109.918 192.521 110.926 191.709 110.926 190.226C110.926 188.826 109.834 188.518 108.295 187.986L106.14 187.259C103.956 186.531 101.773 185.859 101.773 183.172C101.773 180.653 103.732 179.03 106.979 179.03C110.254 179.03 112.521 180.793 112.885 184.096H110.618C110.366 182.024 108.911 181.017 106.895 181.017C105.076 181.017 104.012 181.829 104.012 183.116C104.012 184.656 105.636 184.963 106.867 185.383L108.883 186.055C111.598 186.951 113.221 187.874 113.221 190.338C113.221 192.941 111.318 194.508 107.707 194.508ZM117.646 194.2H115.322V173.208H117.646V186.671L124.867 179.365H127.666L122.32 184.768L128.478 194.2H125.763L120.725 186.391L117.646 189.498V194.2ZM130.772 176.874C129.793 176.874 129.037 176.119 129.037 175.139C129.037 174.159 129.793 173.431 130.772 173.431C131.752 173.431 132.48 174.159 132.48 175.139C132.48 176.119 131.752 176.874 130.772 176.874ZM131.92 194.2H129.597V179.365H131.92V194.2ZM137.259 199.798H134.936V179.365H136.783L137.035 182.052C138.099 180.205 140.058 179.03 142.465 179.03C146.384 179.03 149.127 182.164 149.127 186.699C149.127 191.317 146.384 194.508 142.465 194.508C140.198 194.508 138.323 193.473 137.259 191.737V199.798ZM142.101 192.493C144.844 192.493 146.72 190.114 146.72 186.699C146.72 183.368 144.844 181.045 142.073 181.045C139.274 181.045 137.259 183.312 137.259 186.587C137.259 190.058 139.274 192.493 142.101 192.493ZM153.722 199.798H151.399V179.365H153.246L153.498 182.052C154.562 180.205 156.521 179.03 158.928 179.03C162.847 179.03 165.59 182.164 165.59 186.699C165.59 191.317 162.847 194.508 158.928 194.508C156.661 194.508 154.785 193.473 153.722 191.737V199.798ZM158.564 192.493C161.307 192.493 163.183 190.114 163.183 186.699C163.183 183.368 161.307 181.045 158.536 181.045C155.737 181.045 153.722 183.312 153.722 186.587C153.722 190.058 155.737 192.493 158.564 192.493ZM174.355 194.508C169.961 194.508 167.05 191.289 167.05 186.839C167.05 181.773 170.325 179.03 174.075 179.03C178.162 179.03 180.793 181.773 180.877 186.531V187.175H169.373C169.513 190.338 171.36 192.493 174.355 192.493C176.427 192.493 177.938 191.457 178.554 189.526H180.821C180.149 192.577 177.742 194.508 174.355 194.508ZM169.513 185.243H178.442C178.022 182.64 176.455 181.045 174.075 181.045C171.724 181.045 169.989 182.584 169.513 185.243ZM185.416 194.2H183.093V179.365H184.94L185.22 182.192C186.172 180.289 187.907 179.281 190.371 179.281H190.874V181.577H190.371C187.236 181.577 185.416 183.368 185.416 186.419V194.2ZM197.909 194.508C194.382 194.508 191.779 192.661 191.583 189.526H193.851C194.019 191.457 195.782 192.521 198.021 192.521C200.12 192.521 201.128 191.709 201.128 190.226C201.128 188.826 200.036 188.518 198.497 187.986L196.342 187.259C194.158 186.531 191.975 185.859 191.975 183.172C191.975 180.653 193.935 179.03 197.181 179.03C200.456 179.03 202.724 180.793 203.087 184.096H200.82C200.568 182.024 199.113 181.017 197.097 181.017C195.278 181.017 194.214 181.829 194.214 183.116C194.214 184.656 195.838 184.963 197.069 185.383L199.085 186.055C201.8 186.951 203.423 187.874 203.423 190.338C203.423 192.941 201.52 194.508 197.909 194.508ZM226.286 194.2H224.635C221.752 194.2 220.213 192.717 220.213 189.974V181.325H217.469V179.365H220.213V174.299H222.536V179.365H226.538V181.325H222.536V189.974C222.536 191.457 223.263 192.241 224.635 192.241H226.286V194.2ZM234.603 194.508C229.844 194.508 227.325 191.121 227.325 186.643C227.325 181.689 230.572 179.03 234.603 179.03C239.333 179.03 241.88 182.444 241.88 186.643C241.88 191.765 238.773 194.508 234.603 194.508ZM234.603 192.493C237.766 192.493 239.501 189.862 239.501 186.643C239.501 183.312 237.57 181.045 234.603 181.045C231.636 181.045 229.705 183.312 229.705 186.643C229.705 190.45 231.916 192.493 234.603 192.493ZM255.069 194.508C251.542 194.508 248.939 192.661 248.743 189.526H251.01C251.178 191.457 252.941 192.521 255.181 192.521C257.28 192.521 258.287 191.709 258.287 190.226C258.287 188.826 257.196 188.518 255.656 187.986L253.501 187.259C251.318 186.531 249.135 185.859 249.135 183.172C249.135 180.653 251.094 179.03 254.341 179.03C257.616 179.03 259.883 180.793 260.247 184.096H257.98C257.728 182.024 256.272 181.017 254.257 181.017C252.437 181.017 251.374 181.829 251.374 183.116C251.374 184.656 252.997 184.963 254.229 185.383L256.244 186.055C258.959 186.951 260.583 187.874 260.583 190.338C260.583 192.941 258.679 194.508 255.069 194.508ZM268.002 194.508C264.391 194.508 262.32 192.297 262.32 189.274V179.365H264.643V189.19C264.643 191.317 266.127 192.465 268.226 192.465C270.997 192.465 272.509 190.618 272.537 188.378V179.365H274.86V194.2H273.012L272.816 191.961C271.837 193.64 270.045 194.508 268.002 194.508ZM280.212 199.798H277.889V179.365H279.736L279.988 182.052C281.052 180.205 283.011 179.03 285.418 179.03C289.337 179.03 292.08 182.164 292.08 186.699C292.08 191.317 289.337 194.508 285.418 194.508C283.151 194.508 281.276 193.473 280.212 191.737V199.798ZM285.054 192.493C287.797 192.493 289.673 190.114 289.673 186.699C289.673 183.368 287.797 181.045 285.026 181.045C282.227 181.045 280.212 183.312 280.212 186.587C280.212 190.058 282.227 192.493 285.054 192.493ZM296.675 199.798H294.352V179.365H296.199L296.451 182.052C297.515 180.205 299.474 179.03 301.881 179.03C305.8 179.03 308.543 182.164 308.543 186.699C308.543 191.317 305.8 194.508 301.881 194.508C299.614 194.508 297.739 193.473 296.675 191.737V199.798ZM301.517 192.493C304.26 192.493 306.136 190.114 306.136 186.699C306.136 183.368 304.26 181.045 301.489 181.045C298.69 181.045 296.675 183.312 296.675 186.587C296.675 190.058 298.69 192.493 301.517 192.493ZM317.28 194.508C312.522 194.508 310.003 191.121 310.003 186.643C310.003 181.689 313.25 179.03 317.28 179.03C322.011 179.03 324.558 182.444 324.558 186.643C324.558 191.765 321.451 194.508 317.28 194.508ZM317.28 192.493C320.443 192.493 322.179 189.862 322.179 186.643C322.179 183.312 320.247 181.045 317.28 181.045C314.313 181.045 312.382 183.312 312.382 186.643C312.382 190.45 314.593 192.493 317.28 192.493ZM329.08 194.2H326.757V179.365H328.604L328.884 182.192C329.836 180.289 331.571 179.281 334.034 179.281H334.538V181.577H334.034C330.899 181.577 329.08 183.368 329.08 186.419V194.2ZM344.084 194.2H342.433C339.55 194.2 338.01 192.717 338.01 189.974V181.325H335.267V179.365H338.01V174.299H340.333V179.365H344.336V181.325H340.333V189.974C340.333 191.457 341.061 192.241 342.433 192.241H344.084V194.2ZM350.013 189.974L346.962 199.322L345.087 198.735L348.026 189.358L350.013 189.974ZM371.109 194.508C367.583 194.508 364.979 192.661 364.784 189.526H367.051C367.219 191.457 368.982 192.521 371.221 192.521C373.321 192.521 374.328 191.709 374.328 190.226C374.328 188.826 373.237 188.518 371.697 187.986L369.542 187.259C367.359 186.531 365.175 185.859 365.175 183.172C365.175 180.653 367.135 179.03 370.382 179.03C373.657 179.03 375.924 180.793 376.288 184.096H374.02C373.768 182.024 372.313 181.017 370.298 181.017C368.478 181.017 367.415 181.829 367.415 183.116C367.415 184.656 369.038 184.963 370.27 185.383L372.285 186.055C375 186.951 376.623 187.874 376.623 190.338C376.623 192.941 374.72 194.508 371.109 194.508ZM381.048 194.2H378.725V173.208H381.048V181.269C382.112 179.925 383.931 179.03 385.946 179.03C389.137 179.03 391.264 181.101 391.264 184.376V194.2H388.941V184.46C388.941 182.388 387.598 181.073 385.498 181.073C382.699 181.073 381.076 182.92 381.048 185.187V194.2ZM398.851 194.424C395.492 194.424 393.337 192.689 393.337 189.974C393.337 186.559 396.64 185.915 399.607 185.607C401.874 185.383 403.834 185.411 403.862 184.208C403.834 182.332 402.294 181.017 400.055 181.017C397.9 181.017 396.22 182.22 395.968 183.984H393.673C393.953 181.073 396.584 179.03 400.111 179.03C403.778 179.03 406.129 181.213 406.129 184.348V191.569C406.129 192.045 406.381 192.297 406.885 192.297H407.724V194.2H406.409C404.813 194.2 403.974 193.473 403.974 192.101V191.653C403.106 193.361 401.426 194.424 398.851 194.424ZM399.187 192.437C401.958 192.437 403.862 190.673 403.862 188.21V186.279C403.218 187.147 401.566 187.315 399.747 187.511C397.704 187.734 395.66 188.014 395.66 189.918C395.66 191.457 397.06 192.437 399.187 192.437ZM411.812 194.2H409.489V179.365H411.337L411.616 182.192C412.568 180.289 414.303 179.281 416.767 179.281H417.27V181.577H416.767C413.632 181.577 411.812 183.368 411.812 186.419V194.2ZM424.958 194.508C420.563 194.508 417.652 191.289 417.652 186.839C417.652 181.773 420.927 179.03 424.678 179.03C428.764 179.03 431.395 181.773 431.479 186.531V187.175H419.975C420.115 190.338 421.963 192.493 424.958 192.493C427.029 192.493 428.54 191.457 429.156 189.526H431.423C430.752 192.577 428.344 194.508 424.958 194.508ZM420.115 185.243H429.044C428.624 182.64 427.057 181.045 424.678 181.045C422.326 181.045 420.591 182.584 420.115 185.243ZM436.709 189.974L433.658 199.322L431.782 198.735L434.721 189.358L436.709 189.974ZM5.878 223.424C2.5191 223.424 0.363899 221.689 0.363899 218.974C0.363899 215.559 3.6668 214.915 6.6337 214.607C8.9009 214.383 10.8603 214.411 10.8883 213.208C10.8603 211.332 9.3208 210.017 7.0816 210.017C4.9263 210.017 3.2469 211.22 2.995 212.984H0.699799C0.979699 210.073 3.6108 208.03 7.1376 208.03C10.8043 208.03 13.1555 210.213 13.1555 213.348V220.569C13.1555 221.045 13.4074 221.297 13.9112 221.297H14.7509V223.2H13.4354C11.8399 223.2 11.0002 222.473 11.0002 221.101V220.653C10.1325 222.361 8.4531 223.424 5.878 223.424ZM6.2139 221.437C8.9849 221.437 10.8883 219.673 10.8883 217.21V215.279C10.2445 216.147 8.5931 216.315 6.7737 216.511C4.7304 216.734 2.6871 217.014 2.6871 218.918C2.6871 220.457 4.0866 221.437 6.2139 221.437ZM18.839 223.2H16.5158V208.365H18.3632L18.5871 210.633C19.5948 209.065 21.5261 208.03 23.7374 208.03C26.9283 208.03 29.0555 210.101 29.0555 213.376V223.2H26.7323V213.46C26.7323 211.388 25.3888 210.073 23.1496 210.073C20.4905 210.073 18.867 211.92 18.839 214.187V223.2ZM37.8483 223.508C33.8733 223.508 31.1023 220.317 31.1023 215.699C31.1023 211.164 33.8453 208.03 37.8203 208.03C40.0593 208.03 41.9343 209.009 42.9983 210.577V202.208H45.3213V223.2H43.4743L43.2223 220.345C42.2423 222.277 40.2833 223.508 37.8483 223.508ZM38.2123 221.493C41.0393 221.493 42.9983 219.086 42.9983 215.643C42.9983 212.312 41.0953 210.017 38.3523 210.017C35.4963 210.017 33.5093 212.34 33.5093 215.699C33.5093 219.114 35.4413 221.493 38.2123 221.493ZM60.0663 223.2H57.7433V210.325H55.0003V208.365H57.7433V206.294C57.7433 203.635 59.2273 202.208 61.9703 202.208H65.2723V204.167H61.9703C60.7383 204.167 60.0663 204.923 60.0663 206.294V208.365H64.8813V210.325H60.0663V223.2ZM72.6253 223.508C67.8673 223.508 65.3483 220.121 65.3483 215.643C65.3483 210.689 68.5953 208.03 72.6253 208.03C77.3563 208.03 79.9033 211.444 79.9033 215.643C79.9033 220.765 76.7963 223.508 72.6253 223.508ZM72.6253 221.493C75.7883 221.493 77.5243 218.862 77.5243 215.643C77.5243 212.312 75.5923 210.045 72.6253 210.045C69.6583 210.045 67.7273 212.312 67.7273 215.643C67.7273 219.45 69.9383 221.493 72.6253 221.493ZM87.6443 223.508C84.1173 223.508 81.5143 221.661 81.3183 218.526H83.5853C83.7533 220.457 85.5173 221.521 87.7563 221.521C89.8553 221.521 90.8633 220.709 90.8633 219.226C90.8633 217.826 89.7713 217.518 88.2323 216.986L86.0763 216.259C83.8933 215.531 81.7103 214.859 81.7103 212.172C81.7103 209.653 83.6693 208.03 86.9163 208.03C90.1913 208.03 92.4583 209.793 92.8223 213.096H90.5553C90.3033 211.024 88.8473 210.017 86.8323 210.017C85.0133 210.017 83.9493 210.829 83.9493 212.116C83.9493 213.656 85.5733 213.963 86.8043 214.383L88.8203 215.055C91.5353 215.951 93.1583 216.874 93.1583 219.338C93.1583 221.941 91.2553 223.508 87.6443 223.508ZM102.518 223.2H100.867C97.9833 223.2 96.4443 221.717 96.4443 218.974V210.325H93.7013V208.365H96.4443V203.299H98.7673V208.365H102.77V210.325H98.7673V218.974C98.7673 220.457 99.4953 221.241 100.867 221.241H102.518V223.2ZM110.862 223.508C106.468 223.508 103.557 220.289 103.557 215.839C103.557 210.773 106.832 208.03 110.582 208.03C114.669 208.03 117.3 210.773 117.384 215.531V216.175H105.88C106.02 219.338 107.867 221.493 110.862 221.493C112.934 221.493 114.445 220.457 115.061 218.526H117.328C116.656 221.577 114.249 223.508 110.862 223.508ZM106.02 214.243H114.949C114.529 211.64 112.962 210.045 110.582 210.045C108.231 210.045 106.496 211.584 106.02 214.243ZM121.923 223.2H119.6V208.365H121.447L121.727 211.192C122.679 209.289 124.414 208.281 126.878 208.281H127.381V210.577H126.878C123.743 210.577 121.923 212.368 121.923 215.419V223.2ZM144.644 223.2H142.992C140.109 223.2 138.57 221.717 138.57 218.974V210.325H135.827V208.365H138.57V203.299H140.893V208.365H144.896V210.325H140.893V218.974C140.893 220.457 141.621 221.241 142.992 221.241H144.644V223.2ZM149.201 223.2H146.878V202.208H149.201V210.269C150.265 208.925 152.084 208.03 154.099 208.03C157.29 208.03 159.417 210.101 159.417 213.376V223.2H157.094V213.46C157.094 211.388 155.751 210.073 153.651 210.073C150.852 210.073 149.229 211.92 149.201 214.187V223.2ZM168.768 223.508C164.373 223.508 161.462 220.289 161.462 215.839C161.462 210.773 164.737 208.03 168.488 208.03C172.574 208.03 175.205 210.773 175.289 215.531V216.175H163.785C163.925 219.338 165.773 221.493 168.768 221.493C170.839 221.493 172.35 220.457 172.966 218.526H175.233C174.562 221.577 172.154 223.508 168.768 223.508ZM163.925 214.243H172.854C172.434 211.64 170.867 210.045 168.488 210.045C166.137 210.045 164.401 211.584 163.925 214.243ZM178.681 205.874C177.701 205.874 176.946 205.119 176.946 204.139C176.946 203.159 177.701 202.431 178.681 202.431C179.661 202.431 180.388 203.159 180.388 204.139C180.388 205.119 179.661 205.874 178.681 205.874ZM179.829 223.2H177.505V208.365H179.829V223.2ZM185.112 223.2H182.789V208.365H184.636L184.916 211.192C185.868 209.289 187.603 208.281 190.066 208.281H190.57V210.577H190.066C186.931 210.577 185.112 212.368 185.112 215.419V223.2ZM201.283 205.874C200.303 205.874 199.547 205.119 199.547 204.139C199.547 203.159 200.303 202.431 201.283 202.431C202.262 202.431 202.99 203.159 202.99 204.139C202.99 205.119 202.262 205.874 201.283 205.874ZM202.43 223.2H200.107V208.365H202.43V223.2ZM207.713 223.2H205.39V208.365H207.237L207.461 210.633C208.469 209.065 210.4 208.03 212.612 208.03C215.802 208.03 217.93 210.101 217.93 213.376V223.2H215.607V213.46C215.607 211.388 214.263 210.073 212.024 210.073C209.365 210.073 207.741 211.92 207.713 214.187V223.2ZM228.184 223.2H226.533C223.65 223.2 222.11 221.717 222.11 218.974V210.325H219.367V208.365H222.11V203.299H224.434V208.365H228.436V210.325H224.434V218.974C224.434 220.457 225.161 221.241 226.533 221.241H228.184V223.2ZM236.529 223.508C232.134 223.508 229.223 220.289 229.223 215.839C229.223 210.773 232.498 208.03 236.249 208.03C240.335 208.03 242.966 210.773 243.05 215.531V216.175H231.546C231.686 219.338 233.534 221.493 236.529 221.493C238.6 221.493 240.111 220.457 240.727 218.526H242.994C242.323 221.577 239.915 223.508 236.529 223.508ZM231.686 214.243H240.615C240.195 211.64 238.628 210.045 236.249 210.045C233.898 210.045 232.162 211.584 231.686 214.243ZM247.59 223.2H245.266V208.365H247.114L247.394 211.192C248.345 209.289 250.081 208.281 252.544 208.281H253.048V210.577H252.544C249.409 210.577 247.59 212.368 247.59 215.419V223.2ZM260.735 223.508C256.34 223.508 253.429 220.289 253.429 215.839C253.429 210.773 256.704 208.03 260.455 208.03C264.542 208.03 267.173 210.773 267.257 215.531V216.175H255.753C255.893 219.338 257.74 221.493 260.735 221.493C262.806 221.493 264.318 220.457 264.933 218.526H267.201C266.529 221.577 264.122 223.508 260.735 223.508ZM255.893 214.243H264.821C264.402 211.64 262.834 210.045 260.455 210.045C258.104 210.045 256.368 211.584 255.893 214.243ZM275.015 223.508C271.488 223.508 268.885 221.661 268.689 218.526H270.956C271.124 220.457 272.887 221.521 275.127 221.521C277.226 221.521 278.234 220.709 278.234 219.226C278.234 217.826 277.142 217.518 275.603 216.986L273.447 216.259C271.264 215.531 269.081 214.859 269.081 212.172C269.081 209.653 271.04 208.03 274.287 208.03C277.562 208.03 279.829 209.793 280.193 213.096H277.926C277.674 211.024 276.218 210.017 274.203 210.017C272.384 210.017 271.32 210.829 271.32 212.116C271.32 213.656 272.943 213.963 274.175 214.383L276.19 215.055C278.905 215.951 280.529 216.874 280.529 219.338C280.529 221.941 278.625 223.508 275.015 223.508ZM289.889 223.2H288.237C285.354 223.2 283.815 221.717 283.815 218.974V210.325H281.072V208.365H283.815V203.299H286.138V208.365H290.141V210.325H286.138V218.974C286.138 220.457 286.866 221.241 288.237 221.241H289.889V223.2ZM300.931 205.874C299.951 205.874 299.195 205.119 299.195 204.139C299.195 203.159 299.951 202.431 300.931 202.431C301.91 202.431 302.638 203.159 302.638 204.139C302.638 205.119 301.91 205.874 300.931 205.874ZM302.078 223.2H299.755V208.365H302.078V223.2ZM307.361 223.2H305.038V208.365H306.886L307.109 210.633C308.117 209.065 310.048 208.03 312.26 208.03C315.451 208.03 317.578 210.101 317.578 213.376V223.2H315.255V213.46C315.255 211.388 313.911 210.073 311.672 210.073C309.013 210.073 307.389 211.92 307.361 214.187V223.2ZM327.619 228.798H325.24V226.839H327.619C329.13 226.839 329.774 226.307 330.11 225.412L330.922 223.2H330.362L324.484 208.365H326.975L331.789 220.877L336.436 208.365H338.815L332.153 226.307C331.538 227.931 330.166 228.798 327.619 228.798ZM344.699 223.424C341.34 223.424 339.185 221.689 339.185 218.974C339.185 215.559 342.487 214.915 345.454 214.607C347.722 214.383 349.681 214.411 349.709 213.208C349.681 211.332 348.142 210.017 345.902 210.017C343.747 210.017 342.068 211.22 341.816 212.984H339.521C339.8 210.073 342.432 208.03 345.958 208.03C349.625 208.03 351.976 210.213 351.976 213.348V220.569C351.976 221.045 352.228 221.297 352.732 221.297H353.572V223.2H352.256C350.661 223.2 349.821 222.473 349.821 221.101V220.653C348.953 222.361 347.274 223.424 344.699 223.424ZM345.035 221.437C347.806 221.437 349.709 219.673 349.709 217.21V215.279C349.065 216.147 347.414 216.315 345.594 216.511C343.551 216.734 341.508 217.014 341.508 218.918C341.508 220.457 342.907 221.437 345.035 221.437ZM361.97 223.508C357.156 223.508 354.581 219.981 354.581 215.699C354.581 210.717 357.856 208.03 361.886 208.03C365.609 208.03 368.268 210.269 368.688 214.075H366.421C366.029 211.612 364.321 210.045 361.83 210.045C358.891 210.045 356.932 212.2 356.932 215.699C356.932 219.478 359.227 221.493 361.998 221.493C364.377 221.493 366.001 219.981 366.421 217.406H368.688C368.268 221.241 365.805 223.508 361.97 223.508ZM373.305 223.2H370.981V202.208H373.305V210.269C374.368 208.925 376.188 208.03 378.203 208.03C381.394 208.03 383.521 210.101 383.521 213.376V223.2H381.198V213.46C381.198 211.388 379.854 210.073 377.755 210.073C374.956 210.073 373.333 211.92 373.305 214.187V223.2ZM393.774 223.2H392.122C389.239 223.2 387.7 221.717 387.7 218.974V210.325H384.957V208.365H387.7V203.299H390.023V208.365H394.026V210.325H390.023V218.974C390.023 220.457 390.751 221.241 392.122 221.241H393.774V223.2ZM397.099 205.874C396.12 205.874 395.364 205.119 395.364 204.139C395.364 203.159 396.12 202.431 397.099 202.431C398.079 202.431 398.807 203.159 398.807 204.139C398.807 205.119 398.079 205.874 397.099 205.874ZM398.247 223.2H395.924V208.365H398.247V223.2ZM403.53 223.2H401.207V208.365H403.054L403.278 210.633C404.286 209.065 406.217 208.03 408.428 208.03C411.619 208.03 413.747 210.101 413.747 213.376V223.2H411.423V213.46C411.423 211.388 410.08 210.073 407.841 210.073C405.181 210.073 403.558 211.92 403.53 214.187V223.2ZM423.015 229.134C419.012 229.134 416.297 227.203 416.297 224.068H418.62C418.62 225.831 420.412 227.175 423.015 227.175C426.066 227.175 427.661 225.356 427.661 222.808V220.401C426.626 221.941 424.834 222.948 422.567 222.948C418.62 222.948 415.793 219.925 415.793 215.559C415.793 211.108 418.648 208.03 422.567 208.03C424.946 208.03 426.877 209.149 427.885 210.94L428.137 208.365H429.956V222.808C429.956 226.559 427.437 229.134 423.015 229.134ZM422.903 220.933C425.702 220.933 427.661 218.694 427.661 215.475C427.661 212.284 425.702 210.045 422.903 210.045C420.132 210.045 418.2 212.284 418.2 215.531C418.2 218.722 420.132 220.933 422.903 220.933ZM436.709 218.974L433.658 228.322L431.782 227.735L434.721 218.358L436.709 218.974ZM8.817 252.2H7.1655C4.2825 252.2 2.7431 250.717 2.7431 247.974V239.325H0V237.365H2.7431V232.299H5.0663V237.365H9.0689V239.325H5.0663V247.974C5.0663 249.457 5.794 250.241 7.1655 250.241H8.817V252.2ZM13.2902 252.2H10.967V237.365H12.8143L13.0942 240.192C14.0459 238.289 15.7813 237.281 18.2445 237.281H18.7483V239.577H18.2445C15.1096 239.577 13.2902 241.368 13.2902 244.419V252.2ZM25.0273 252.424C21.6685 252.424 19.5132 250.689 19.5132 247.974C19.5132 244.559 22.8161 243.915 25.7831 243.607C28.0503 243.383 30.0096 243.411 30.0376 242.208C30.0096 240.332 28.4701 239.017 26.2309 239.017C24.0756 239.017 22.3962 240.22 22.1443 241.984H19.8491C20.129 239.073 22.7601 237.03 26.2869 237.03C29.9536 237.03 32.3048 239.213 32.3048 242.348V249.569C32.3048 250.045 32.5567 250.297 33.0605 250.297H33.9003V252.2H32.5847C30.9893 252.2 30.1495 251.473 30.1495 250.101V249.653C29.2818 251.361 27.6024 252.424 25.0273 252.424ZM25.3632 250.437C28.1342 250.437 30.0376 248.673 30.0376 246.21V244.279C29.3938 245.147 27.7424 245.315 25.923 245.511C23.8797 245.734 21.8364 246.014 21.8364 247.918C21.8364 249.457 23.2359 250.437 25.3632 250.437ZM42.2323 252.2H39.7973L33.6113 237.365H36.1303L41.0283 249.485L45.8983 237.365H48.4183L42.2323 252.2ZM56.0533 252.508C51.6593 252.508 48.7483 249.289 48.7483 244.839C48.7483 239.773 52.0233 237.03 55.7743 237.03C59.8603 237.03 62.4913 239.773 62.5753 244.531V245.175H51.0713C51.2113 248.338 53.0583 250.493 56.0533 250.493C58.1253 250.493 59.6363 249.457 60.2523 247.526H62.5193C61.8473 250.577 59.4403 252.508 56.0533 252.508ZM51.2113 243.243H60.1403C59.7203 240.64 58.1533 239.045 55.7743 239.045C53.4223 239.045 51.6873 240.584 51.2113 243.243ZM67.1983 252.2H64.8753V231.208H67.1983V252.2ZM71.4143 234.874C70.4343 234.874 69.6793 234.119 69.6793 233.139C69.6793 232.159 70.4343 231.431 71.4143 231.431C72.3943 231.431 73.1213 232.159 73.1213 233.139C73.1213 234.119 72.3943 234.874 71.4143 234.874ZM72.5623 252.2H70.2383V237.365H72.5623V252.2ZM77.8453 252.2H75.5223V237.365H77.3693L77.5933 239.633C78.6013 238.065 80.5323 237.03 82.7433 237.03C85.9343 237.03 88.0613 239.101 88.0613 242.376V252.2H85.7383V242.46C85.7383 240.388 84.3953 239.073 82.1553 239.073C79.4963 239.073 77.8733 240.92 77.8453 243.187V252.2ZM97.3303 258.134C93.3273 258.134 90.6123 256.203 90.6123 253.068H92.9353C92.9353 254.831 94.7263 256.175 97.3303 256.175C100.38 256.175 101.976 254.356 101.976 251.808V249.401C100.94 250.941 99.1493 251.948 96.8823 251.948C92.9353 251.948 90.1083 248.925 90.1083 244.559C90.1083 240.108 92.9633 237.03 96.8823 237.03C99.2613 237.03 101.192 238.149 102.2 239.94L102.452 237.365H104.271V251.808C104.271 255.559 101.752 258.134 97.3303 258.134ZM97.2183 249.933C100.017 249.933 101.976 247.694 101.976 244.475C101.976 241.284 100.017 239.045 97.2183 239.045C94.4473 239.045 92.5153 241.284 92.5153 244.531C92.5153 247.722 94.4473 249.933 97.2183 249.933ZM111.023 247.974L107.972 257.322L106.097 256.735L109.036 247.358L111.023 247.974ZM123.691 252.424C120.332 252.424 118.177 250.689 118.177 247.974C118.177 244.559 121.48 243.915 124.446 243.607C126.714 243.383 128.673 243.411 128.701 242.208C128.673 240.332 127.134 239.017 124.894 239.017C122.739 239.017 121.06 240.22 120.808 241.984H118.513C118.792 239.073 121.424 237.03 124.95 237.03C128.617 237.03 130.968 239.213 130.968 242.348V249.569C130.968 250.045 131.22 250.297 131.724 250.297H132.564V252.2H131.248C129.653 252.2 128.813 251.473 128.813 250.101V249.653C127.945 251.361 126.266 252.424 123.691 252.424ZM124.027 250.437C126.798 250.437 128.701 248.673 128.701 246.21V244.279C128.057 245.147 126.406 245.315 124.586 245.511C122.543 245.734 120.5 246.014 120.5 247.918C120.5 249.457 121.899 250.437 124.027 250.437ZM136.652 252.2H134.329V237.365H136.176L136.4 239.633C137.408 238.065 139.339 237.03 141.55 237.03C144.741 237.03 146.868 239.101 146.868 242.376V252.2H144.545V242.46C144.545 240.388 143.202 239.073 140.962 239.073C138.303 239.073 136.68 240.92 136.652 243.187V252.2ZM155.661 252.508C151.686 252.508 148.915 249.317 148.915 244.699C148.915 240.164 151.658 237.03 155.633 237.03C157.872 237.03 159.747 238.009 160.811 239.577V231.208H163.134V252.2H161.287L161.035 249.345C160.055 251.277 158.096 252.508 155.661 252.508ZM156.025 250.493C158.852 250.493 160.811 248.086 160.811 244.643C160.811 241.312 158.908 239.017 156.165 239.017C153.31 239.017 151.322 241.34 151.322 244.699C151.322 248.114 153.254 250.493 156.025 250.493ZM179.361 252.2H177.709C174.826 252.2 173.287 250.717 173.287 247.974V239.325H170.544V237.365H173.287V232.299H175.61V237.365H179.613V239.325H175.61V247.974C175.61 249.457 176.338 250.241 177.709 250.241H179.361V252.2ZM183.918 252.2H181.595V231.208H183.918V239.269C184.982 237.925 186.801 237.03 188.816 237.03C192.007 237.03 194.135 239.101 194.135 242.376V252.2H191.811V242.46C191.811 240.388 190.468 239.073 188.369 239.073C185.57 239.073 183.946 240.92 183.918 243.187V252.2ZM203.485 252.508C199.09 252.508 196.179 249.289 196.179 244.839C196.179 239.773 199.454 237.03 203.205 237.03C207.292 237.03 209.923 239.773 210.007 244.531V245.175H198.503C198.643 248.338 200.49 250.493 203.485 250.493C205.556 250.493 207.068 249.457 207.683 247.526H209.951C209.279 250.577 206.872 252.508 203.485 252.508ZM198.643 243.243H207.571C207.152 240.64 205.584 239.045 203.205 239.045C200.854 239.045 199.118 240.584 198.643 243.243ZM213.398 234.874C212.419 234.874 211.663 234.119 211.663 233.139C211.663 232.159 212.419 231.431 213.398 231.431C214.378 231.431 215.106 232.159 215.106 233.139C215.106 234.119 214.378 234.874 213.398 234.874ZM214.546 252.2H212.223V237.365H214.546V252.2ZM219.829 252.2H217.506V237.365H219.353L219.633 240.192C220.585 238.289 222.32 237.281 224.783 237.281H225.287V239.577H224.783C221.648 239.577 219.829 241.368 219.829 244.419V252.2Z" fill="white"/>
<path d="M341.973 165.404C341.438 165.404 341.063 165.243 340.635 164.815C340.099 164.279 339.832 163.53 339.832 162.834C339.832 160.692 341.545 158.55 344.49 154.802C345.293 153.784 346.15 152.713 347.06 151.642H346.043C345.133 151.642 344.919 151.321 344.919 150.625H347.864C352.308 145.109 356.753 139.38 356.753 137.773C357.877 138.202 358.305 139.166 358.305 139.808C358.305 141.147 354.878 145.538 350.916 150.678H353.326C354.022 150.678 354.075 151.053 354.075 151.428C352.79 151.482 351.505 151.535 350.166 151.589C348.935 153.195 347.65 154.855 346.418 156.515C343.098 160.96 341.652 163.209 341.706 164.547C345.133 164.547 350.755 159.3 352.737 156.783C352.844 156.836 352.897 156.943 352.897 157.051C352.897 158.122 345.293 165.404 341.973 165.404ZM359.517 150.357C361.444 151.107 361.926 151.856 361.926 152.606C361.926 154.962 359.624 158.711 356.946 161.388C354.644 163.69 352.234 165.404 350.842 165.404C349.717 165.404 348.754 164.172 348.754 162.298C348.754 158.068 354.965 150.464 359.517 150.357ZM356.357 160.799C358.82 158.336 361.123 154.641 361.123 152.606C361.123 152.124 361.016 151.856 360.802 151.642C357.75 152.017 350.628 160.585 350.36 164.119C350.467 164.333 350.628 164.44 350.895 164.44C352.234 164.44 354.269 162.887 356.357 160.799ZM373.21 152.499C373.21 152.178 373.157 151.964 372.996 151.696C369.997 152.071 361.269 160.371 361.001 164.119C361.108 164.333 361.376 164.494 361.751 164.494C362.768 164.494 365.446 162.78 368.016 160.21C369.087 159.139 370.211 158.014 371.229 156.783C372.246 155.551 373.21 153.945 373.21 152.499ZM350.56 182.057C347.721 182.057 346.222 179.808 346.222 178.202C346.222 176.649 346.704 175.685 347.936 174.454C348.471 173.918 349.542 173.329 350.078 173.329C350.613 173.329 350.988 173.49 350.988 173.757C350.988 174.079 350.667 174.4 350.506 174.561C349.649 175.417 347.989 178.095 347.989 179.166C348.257 180.665 348.792 181.04 350.024 181.04C353.719 181.04 361.215 171.99 365.606 165.511C367.213 163.155 368.552 161.174 369.676 159.567L368.552 160.692C365.821 163.423 363.143 165.404 361.858 165.404C360.412 165.404 359.448 164.065 359.448 162.084C359.448 158.122 367.213 150.464 371.711 150.411C373.585 151.107 374.013 151.91 374.013 152.499C374.013 152.713 374.013 152.981 373.96 153.195C374.656 152.124 374.924 151.589 375.138 151.16C376.477 151.642 376.477 152.499 376.477 153.195C376.477 154.213 375.245 155.605 365.928 169.045C362.608 173.811 355.807 182.057 350.56 182.057ZM379.893 157.8C381.285 157.8 383.909 156.515 385.409 155.016C386.479 153.945 387.176 152.981 387.176 152.445C387.176 151.964 387.122 151.749 387.015 151.642C385.194 151.803 381.928 154.641 379.465 157.8H379.893ZM387.069 159.996C384.07 162.994 379.358 165.404 377.269 165.404C375.502 165.404 374.538 164.601 374.538 162.245C374.538 157.8 381.285 150.464 385.837 150.357C387.336 150.893 387.979 151.321 387.979 152.445C387.979 153.356 387.069 154.427 386.105 155.391C384.391 157.104 381.66 158.443 379.84 158.443C379.465 158.443 379.197 158.443 378.983 158.389C377.43 160.478 376.252 162.62 376.145 164.172C376.252 164.333 376.52 164.494 377.162 164.494C379.572 164.494 384.23 162.031 387.283 158.978C388.139 158.122 388.836 157.372 389.318 156.729C389.425 156.783 389.478 156.89 389.478 156.997C389.478 157.372 388.514 158.55 387.069 159.996ZM387.158 165.404C386.623 165.404 386.248 165.243 385.82 164.815C385.284 164.279 385.017 163.53 385.017 162.834C385.017 160.692 386.73 158.55 389.675 154.802C390.478 153.784 391.335 152.713 392.245 151.642H391.228C390.318 151.642 390.104 151.321 390.104 150.625H393.049C397.493 145.109 401.938 139.38 401.938 137.773C403.062 138.202 403.49 139.166 403.49 139.808C403.49 141.147 400.063 145.538 396.101 150.678H398.511C399.207 150.678 399.26 151.053 399.26 151.428C397.975 151.482 396.69 151.535 395.351 151.589C394.12 153.195 392.835 154.855 391.603 156.515C388.283 160.96 386.837 163.209 386.891 164.547C390.318 164.547 395.94 159.3 397.922 156.783C398.029 156.836 398.082 156.943 398.082 157.051C398.082 158.122 390.478 165.404 387.158 165.404ZM404.113 165.404C403.738 165.404 403.309 165.243 402.935 164.869C402.345 164.279 402.131 163.53 402.131 162.727C402.131 159.353 410.378 153.195 409.842 151.482C409.842 151.482 409.467 151.375 409.253 151.375C407.968 151.375 404.809 153.409 400.364 158.014C398.49 159.996 396.08 162.673 393.939 165.458C393.189 165.458 392.279 164.494 392.279 163.53C392.279 162.673 396.348 156.729 408.932 140.826C412.734 136.06 413.698 133.918 413.698 133.383C414.876 133.811 415.25 134.775 415.25 135.417C415.25 136.381 413.43 139.166 412.627 140.183C407.165 147.091 401.167 154.534 398.651 158.443L398.704 158.657C399.133 158.175 399.561 157.747 399.989 157.318C403.952 153.249 407.379 150.732 409.2 150.732C410.163 150.732 411.127 151.482 411.127 152.874C411.127 156.301 403.952 162.459 404.005 164.547C406.576 164.547 412.198 159.3 414.18 156.783C414.287 156.836 414.34 156.943 414.34 157.051C414.34 158.122 406.843 165.404 404.113 165.404ZM415.586 157.8C416.978 157.8 419.602 156.515 421.101 155.016C422.172 153.945 422.868 152.981 422.868 152.445C422.868 151.964 422.815 151.749 422.708 151.642C420.887 151.803 417.621 154.641 415.158 157.8H415.586ZM422.761 159.996C419.763 162.994 415.05 165.404 412.962 165.404C411.195 165.404 410.231 164.601 410.231 162.245C410.231 157.8 416.978 150.464 421.53 150.357C423.029 150.893 423.672 151.321 423.672 152.445C423.672 153.356 422.761 154.427 421.797 155.391C420.084 157.104 417.353 158.443 415.532 158.443C415.158 158.443 414.89 158.443 414.676 158.389C413.123 160.478 411.945 162.62 411.838 164.172C411.945 164.333 412.212 164.494 412.855 164.494C415.265 164.494 419.923 162.031 422.976 158.978C423.832 158.122 424.528 157.372 425.01 156.729C425.117 156.783 425.171 156.89 425.171 156.997C425.171 157.372 424.207 158.55 422.761 159.996ZM421.084 165.458C420.174 165.458 419.638 164.44 419.638 163.316C419.638 161.816 426.225 153.998 427.135 151.267C428.367 151.749 428.42 152.606 428.42 153.302C428.42 154.105 427.242 156.14 425.636 158.389L425.689 158.657C427.992 155.765 430.616 152.713 431.365 151.964C432.169 151.16 433.025 150.411 433.721 150.411C434.578 150.411 434.846 151 434.846 152.071C434.846 152.874 434.257 154.052 432.972 154.748C432.543 154.427 432.276 153.945 432.276 153.516C432.49 152.66 433.24 151.964 433.775 151.642C433.721 151.321 433.668 151.214 433.507 151.214C433.293 151.214 432.651 151.696 431.794 152.553C429.598 154.748 423.922 161.816 421.084 165.458Z" fill="white"/>
<path d="M246.54 252.404C246.058 252.404 245.63 252.243 245.255 251.869C244.773 251.387 244.505 250.69 244.505 250.048C244.505 249.245 244.719 248.441 245.255 247.424L245.041 247.638C242.578 250.101 239.258 252.404 238.133 252.404C236.794 252.404 235.884 251.226 235.884 249.459C235.884 245.336 243.756 237.571 248.147 237.464C249.967 238.16 250.449 238.964 250.449 239.606C250.449 239.767 250.449 239.927 250.396 240.088C255.108 233.93 262.658 224.399 262.658 222.524C263.836 222.953 264.211 223.917 264.211 224.559C264.211 226.969 254.09 239.017 250.877 243.515C247.129 248.709 246.219 250.262 246.433 251.547C249.003 251.547 254.626 246.3 256.607 243.783C256.714 243.836 256.768 243.943 256.768 244.051C256.768 245.122 249.271 252.404 246.54 252.404ZM238.026 251.494C239.043 251.494 242.149 249.405 244.505 247.049C245.63 245.925 246.701 244.907 247.718 243.676L247.825 243.515C248.039 243.247 248.254 242.98 248.468 242.658C249.164 241.694 249.646 240.624 249.646 239.606C249.646 239.178 249.592 239.017 249.432 238.749C246.754 239.178 237.758 247.478 237.383 251.119C237.491 251.387 237.705 251.494 238.026 251.494ZM252.757 252.458C251.847 252.458 251.311 251.44 251.311 250.316C251.311 248.816 257.898 240.998 258.808 238.267C260.04 238.749 260.093 239.606 260.093 240.302C260.093 241.105 258.915 243.14 257.309 245.389L257.362 245.657C259.665 242.765 262.289 239.713 263.038 238.964C263.841 238.16 264.698 237.411 265.394 237.411C266.251 237.411 266.519 238 266.519 239.071C266.519 239.874 265.93 241.052 264.645 241.748C264.216 241.427 263.949 240.945 263.949 240.516C264.163 239.66 264.912 238.964 265.448 238.642C265.394 238.321 265.341 238.214 265.18 238.214C264.966 238.214 264.323 238.696 263.467 239.553C261.271 241.748 255.595 248.816 252.757 252.458ZM267.184 244.8C268.577 244.8 271.2 243.515 272.7 242.016C273.771 240.945 274.467 239.981 274.467 239.445C274.467 238.964 274.413 238.749 274.306 238.642C272.486 238.803 269.219 241.641 266.756 244.8H267.184ZM274.36 246.996C271.361 249.994 266.649 252.404 264.561 252.404C262.793 252.404 261.83 251.601 261.83 249.245C261.83 244.8 268.577 237.464 273.128 237.357C274.627 237.893 275.27 238.321 275.27 239.445C275.27 240.356 274.36 241.427 273.396 242.391C271.682 244.104 268.951 245.443 267.131 245.443C266.756 245.443 266.488 245.443 266.274 245.389C264.721 247.478 263.543 249.62 263.436 251.172C263.543 251.333 263.811 251.494 264.453 251.494C266.863 251.494 271.522 249.031 274.574 245.978C275.431 245.122 276.127 244.372 276.609 243.729C276.716 243.783 276.769 243.89 276.769 243.997C276.769 244.372 275.806 245.55 274.36 246.996ZM282.696 252.404C282.321 252.404 281.893 252.243 281.518 251.869C281.036 251.387 280.822 250.69 280.822 249.834C280.822 249.352 280.983 248.763 281.304 248.12C278.894 250.369 275.895 252.404 274.771 252.404C273.379 252.404 272.576 251.333 272.576 249.191C272.576 245.229 280.019 237.518 284.57 237.464C286.444 238.16 286.873 238.964 286.873 239.66C286.873 239.874 286.873 240.142 286.819 240.409C287.515 239.445 287.997 238.642 288.051 238.214C289.282 238.696 289.282 239.553 289.282 240.249C289.282 241.962 282.482 248.923 282.589 251.547C285.159 251.547 290.782 246.3 292.763 243.783C292.87 243.836 292.924 243.943 292.924 244.051C292.924 245.122 285.427 252.404 282.696 252.404ZM286.07 239.66C286.07 239.178 286.016 239.017 285.855 238.749C282.535 239.124 274.396 247.371 274.128 251.119C274.236 251.387 274.45 251.494 274.771 251.494C275.788 251.494 278.894 249.405 281.25 247.049C282.053 246.246 283.017 245.068 284.035 243.836C285.052 242.605 286.07 241.052 286.07 239.66ZM305.148 249.727C305.148 246.46 313.501 240.302 312.752 238.91C312.752 238.91 312.43 238.803 312.163 238.803C310.824 238.803 307.986 240.891 304.666 244.211C302.149 246.728 299.793 249.405 297.544 252.458C296.634 252.458 296.045 251.44 296.045 250.476C296.045 248.977 303.381 240.784 304.077 238.214C304.077 238.214 303.809 238.107 303.488 238.107C302.363 238.107 299.954 239.981 297.116 242.819C294.438 245.496 291.547 248.977 288.869 252.458C287.959 252.458 287.37 251.44 287.37 250.316C287.37 248.816 294.278 240.731 295.188 237.946C296.313 238.428 296.366 239.285 296.366 239.981C296.366 240.998 295.188 243.14 293.421 245.443L293.475 245.657C294.438 244.533 295.563 243.408 296.687 242.284C299.793 239.124 301.989 237.464 303.434 237.464C304.452 237.464 305.362 238 305.362 239.606C305.362 241.213 304.238 242.98 302.417 245.336L302.524 245.389C303.06 244.8 303.702 244.265 304.291 243.676C307.718 240.195 310.342 238.16 312.109 238.16C313.073 238.16 314.037 238.856 314.037 240.249C314.037 243.354 306.969 249.405 307.022 251.547C309.592 251.547 315.215 246.3 317.196 243.783C317.303 243.836 317.357 243.943 317.357 244.051C317.357 245.122 309.86 252.404 307.129 252.404C306.754 252.404 306.326 252.243 305.951 251.869C305.362 251.279 305.148 250.53 305.148 249.727ZM316.046 252.404C314.386 252.404 312.351 250.905 312.351 248.602C312.351 247.049 312.886 246.085 314.118 244.854C314.653 244.318 315.724 243.729 316.26 243.729C316.795 243.729 317.17 243.89 317.17 244.158C317.17 244.479 316.849 244.8 316.688 244.961C315.832 245.818 314.172 248.495 314.172 249.566C314.172 250.905 315.135 251.761 316.474 251.815C318.348 251.172 320.276 248.923 320.276 245.336C320.276 241.159 320.758 240.302 322.257 238.803C323.168 237.893 324.613 237.25 325.738 237.25C327.023 237.25 327.612 238.267 327.612 238.91C327.612 239.713 327.023 240.891 325.738 241.587C325.309 241.266 325.042 240.784 325.042 240.356C325.256 239.392 326.22 238.589 326.702 238.375C326.595 238 326.327 237.893 325.738 237.893C323.864 237.893 322.579 240.142 322.579 241.748C322.579 243.729 323.114 245.229 323.114 246.782C323.114 249.512 319.687 252.404 316.046 252.404ZM326.564 249.031C327.206 249.031 327.688 249.512 327.688 250.209C327.688 251.226 326.617 252.404 325.653 252.404C325.011 252.404 324.582 251.922 324.582 251.226C324.582 250.262 325.653 249.031 326.564 249.031Z" fill="white"/>
</svg>
