<svg width="570" height="400" viewBox="0 0 570 400" fill="none" xmlns="http://www.w3.org/2000/svg">
<rect width="570" height="400" fill="#1E02AF"/>
<path d="M71.7715 126.613C84.266 108.396 111.671 124.83 121.837 99.518C133.457 70.5884 100.264 70.685 103.462 85.4134C106.661 100.142 148.33 82.483 161.68 104.003C177.476 129.466 136.305 151.936 127.4 140.954C118.495 129.971 163.268 106.955 274.701 126.205C374.067 143.371 447.655 87.5038 434.818 76.0825C426.12 68.3435 408.709 82.3239 431.886 91.7586C445.653 97.3632 482.987 93.3934 486.288 113.111C490.195 136.449 423.403 148.857 430.675 126.205C433.308 118.003 451.43 117.871 466.818 128.018C471.187 130.9 482.473 142.545 495.825 140.954" stroke="white" stroke-width="4.47845" stroke-linecap="square"/>
<path d="M73.5854 208.216C69.5268 208.216 67.1196 206.313 66.9237 203.066H70.1146C70.2265 204.661 71.5981 205.501 73.4174 205.501C75.0969 205.501 75.9925 204.857 75.9925 203.71C75.9925 202.562 75.0409 202.338 73.7533 201.918L71.794 201.275C69.3308 200.463 67.2036 199.623 67.2036 196.88C67.2036 194.249 69.2189 192.514 72.7737 192.514C76.2165 192.514 78.5677 194.333 78.9595 197.692H75.8246C75.6567 196.012 74.4531 195.229 72.7457 195.229C71.2902 195.229 70.4505 195.844 70.4505 196.852C70.4505 198 71.738 198.308 72.8017 198.671L74.593 199.259C77.532 200.239 79.2954 201.135 79.2954 203.794C79.2954 206.537 77.2241 208.216 73.5854 208.216ZM85.9245 208.104C82.5097 208.104 80.2705 206.453 80.2985 203.682C80.3265 200.211 83.7693 199.483 86.6523 199.147C88.8915 198.895 90.5429 198.811 90.5709 197.636C90.5429 196.18 89.4233 195.229 87.52 195.229C85.5607 195.229 84.1611 196.292 83.9652 197.832H80.6344C80.9422 194.697 83.7413 192.514 87.576 192.514C91.5786 192.514 93.7898 194.697 93.7898 197.86V204.577C93.7898 204.997 94.0137 205.221 94.5176 205.221H95.3293V207.796H93.7618C92.2503 207.796 91.3267 207.18 91.0747 206.061C91.0188 205.921 90.9628 205.725 90.9348 205.557C90.0671 207.152 88.4437 208.104 85.9245 208.104ZM86.5963 205.501C88.8635 205.501 90.5709 204.214 90.5709 202.226V200.155C90.0111 201.023 88.5836 201.219 87.0161 201.414C85.1688 201.638 83.6293 201.89 83.6293 203.458C83.6293 204.745 84.665 205.501 86.5963 205.501ZM98.3205 190.974C97.1169 190.974 96.1933 190.022 96.1933 188.819C96.1933 187.615 97.1169 186.692 98.3205 186.692C99.5521 186.692 100.448 187.615 100.448 188.819C100.448 190.022 99.5521 190.974 98.3205 190.974ZM99.972 207.796H96.6691V192.961H99.972V207.796ZM105.858 207.796H102.555V186.804H105.858V207.796ZM124.506 208.216C120.447 208.216 118.04 206.313 117.844 203.066H121.035C121.147 204.661 122.519 205.501 124.338 205.501C126.017 205.501 126.913 204.857 126.913 203.71C126.913 202.562 125.961 202.338 124.674 201.918L122.715 201.275C120.251 200.463 118.124 199.623 118.124 196.88C118.124 194.249 120.139 192.514 123.694 192.514C127.137 192.514 129.488 194.333 129.88 197.692H126.745C126.577 196.012 125.374 195.229 123.666 195.229C122.211 195.229 121.371 195.844 121.371 196.852C121.371 198 122.659 198.308 123.722 198.671L125.514 199.259C128.453 200.239 130.216 201.135 130.216 203.794C130.216 206.537 128.145 208.216 124.506 208.216ZM136.845 208.104C133.43 208.104 131.191 206.453 131.219 203.682C131.247 200.211 134.69 199.483 137.573 199.147C139.812 198.895 141.464 198.811 141.491 197.636C141.464 196.18 140.344 195.229 138.441 195.229C136.481 195.229 135.082 196.292 134.886 197.832H131.555C131.863 194.697 134.662 192.514 138.497 192.514C142.499 192.514 144.71 194.697 144.71 197.86V204.577C144.71 204.997 144.934 205.221 145.438 205.221H146.25V207.796H144.682C143.171 207.796 142.247 207.18 141.995 206.061C141.939 205.921 141.883 205.725 141.855 205.557C140.988 207.152 139.364 208.104 136.845 208.104ZM137.517 205.501C139.784 205.501 141.491 204.214 141.491 202.226V200.155C140.932 201.023 139.504 201.219 137.937 201.414C136.089 201.638 134.55 201.89 134.55 203.458C134.55 204.745 135.586 205.501 137.517 205.501ZM149.241 190.974C148.038 190.974 147.114 190.022 147.114 188.819C147.114 187.615 148.038 186.692 149.241 186.692C150.473 186.692 151.368 187.615 151.368 188.819C151.368 190.022 150.473 190.974 149.241 190.974ZM150.893 207.796H147.59V192.961H150.893V207.796ZM156.778 207.796H153.476V186.804L156.778 186.804V207.796ZM176.406 208.216C171.564 208.216 168.737 204.745 168.737 200.267C168.737 195.397 172.012 192.514 176.322 192.514C180.381 192.514 183.124 195.005 183.404 198.699H180.157C179.849 196.656 178.394 195.341 176.294 195.341C173.775 195.341 172.096 197.244 172.096 200.267C172.096 203.514 173.943 205.389 176.406 205.389C178.422 205.389 179.821 204.102 180.157 201.974H183.404C183.012 205.809 180.353 208.216 176.406 208.216ZM188.495 207.796H185.192V186.804H188.495V207.796ZM196.393 208.216C192.867 208.216 190.823 206.005 190.823 202.786V192.961H194.126V202.646C194.126 204.325 195.302 205.305 197.065 205.305C199.332 205.305 200.676 203.822 200.704 201.918V192.961H204.007V207.796H201.348L201.096 205.641C200.228 207.236 198.465 208.216 196.393 208.216ZM214.784 208.216C212.433 208.216 210.473 207.041 209.55 205.165L209.242 207.796H206.583V186.804H209.886V194.893C210.949 193.437 212.713 192.514 214.812 192.514C218.731 192.514 221.502 195.704 221.502 200.295C221.502 204.969 218.731 208.216 214.784 208.216ZM214.056 205.417C216.463 205.417 218.115 203.318 218.115 200.295C218.115 197.356 216.463 195.313 214.056 195.313C211.621 195.313 209.886 197.328 209.886 200.211C209.886 203.262 211.621 205.417 214.056 205.417ZM234.988 190.47C234.009 190.47 233.253 189.715 233.253 188.735C233.253 187.755 234.009 187.027 234.988 187.027C235.968 187.027 236.696 187.755 236.696 188.735C236.696 189.715 235.968 190.47 234.988 190.47ZM236.136 207.796H233.813V192.961H236.136V207.796ZM244.638 208.104C241.111 208.104 238.508 206.257 238.312 203.122H240.58C240.747 205.053 242.511 206.117 244.75 206.117C246.849 206.117 247.857 205.305 247.857 203.822C247.857 202.422 246.765 202.114 245.226 201.582L243.071 200.855C240.887 200.127 238.704 199.455 238.704 196.768C238.704 194.249 240.664 192.626 243.91 192.626C247.185 192.626 249.452 194.389 249.816 197.692H247.549C247.297 195.62 245.842 194.613 243.826 194.613C242.007 194.613 240.943 195.425 240.943 196.712C240.943 198.252 242.567 198.559 243.798 198.979L245.814 199.651C248.529 200.547 250.152 201.47 250.152 203.934C250.152 206.537 248.249 208.104 244.638 208.104ZM267.309 208.02C263.95 208.02 261.795 206.285 261.795 203.57C261.795 200.155 265.098 199.511 268.065 199.203C270.332 198.979 272.291 199.007 272.319 197.804C272.291 195.928 270.752 194.613 268.513 194.613C266.357 194.613 264.678 195.816 264.426 197.58H262.131C262.411 194.669 265.042 192.626 268.569 192.626C272.235 192.626 274.587 194.809 274.587 197.944V205.165C274.587 205.641 274.838 205.893 275.342 205.893H276.182V207.796H274.866C273.271 207.796 272.431 207.069 272.431 205.697V205.249C271.564 206.957 269.884 208.02 267.309 208.02ZM267.645 206.033C270.416 206.033 272.319 204.269 272.319 201.806V199.875C271.676 200.743 270.024 200.911 268.205 201.107C266.161 201.33 264.118 201.61 264.118 203.514C264.118 205.053 265.518 206.033 267.645 206.033ZM294.934 208.104C290.119 208.104 287.544 204.577 287.544 200.295C287.544 195.313 290.819 192.626 294.85 192.626C298.573 192.626 301.232 194.865 301.651 198.671H299.384C298.992 196.208 297.285 194.641 294.794 194.641C291.855 194.641 289.896 196.796 289.896 200.295C289.896 204.074 292.191 206.089 294.962 206.089C297.341 206.089 298.964 204.577 299.384 202.002H301.651C301.232 205.837 298.768 208.104 294.934 208.104ZM306.268 207.796H303.945V186.804H306.268V207.796ZM315.83 208.104C311.072 208.104 308.552 204.717 308.552 200.239C308.552 195.285 311.799 192.626 315.83 192.626C320.56 192.626 323.107 196.04 323.107 200.239C323.107 205.361 320 208.104 315.83 208.104ZM315.83 206.089C318.993 206.089 320.728 203.458 320.728 200.239C320.728 196.908 318.797 194.641 315.83 194.641C312.863 194.641 310.932 196.908 310.932 200.239C310.932 204.046 313.143 206.089 315.83 206.089ZM330.848 208.104C327.322 208.104 324.719 206.257 324.523 203.122H326.79C326.958 205.053 328.721 206.117 330.96 206.117C333.06 206.117 334.067 205.305 334.067 203.822C334.067 202.422 332.976 202.114 331.436 201.582L329.281 200.855C327.098 200.127 324.914 199.455 324.914 196.768C324.914 194.249 326.874 192.626 330.121 192.626C333.396 192.626 335.663 194.389 336.027 197.692H333.759C333.508 195.62 332.052 194.613 330.037 194.613C328.217 194.613 327.154 195.425 327.154 196.712C327.154 198.252 328.777 198.559 330.009 198.979L332.024 199.651C334.739 200.547 336.363 201.47 336.363 203.934C336.363 206.537 334.459 208.104 330.848 208.104ZM344.93 208.104C340.535 208.104 337.624 204.885 337.624 200.435C337.624 195.369 340.899 192.626 344.65 192.626C348.736 192.626 351.367 195.369 351.451 200.127V200.771H339.947C340.087 203.934 341.935 206.089 344.93 206.089C347.001 206.089 348.512 205.053 349.128 203.122H351.395C350.724 206.173 348.316 208.104 344.93 208.104ZM340.087 198.839H349.016C348.596 196.236 347.029 194.641 344.65 194.641C342.298 194.641 340.563 196.18 340.087 198.839ZM370.654 208.104C365.84 208.104 363.265 204.577 363.265 200.295C363.265 195.313 366.54 192.626 370.57 192.626C374.293 192.626 376.952 194.865 377.372 198.671H375.105C374.713 196.208 373.005 194.641 370.514 194.641C367.575 194.641 365.616 196.796 365.616 200.295C365.616 204.074 367.911 206.089 370.682 206.089C373.061 206.089 374.685 204.577 375.105 202.002H377.372C376.952 205.837 374.489 208.104 370.654 208.104ZM386.103 208.104C381.345 208.104 378.826 204.717 378.826 200.239C378.826 195.285 382.073 192.626 386.103 192.626C390.834 192.626 393.381 196.04 393.381 200.239C393.381 205.361 390.274 208.104 386.103 208.104ZM386.103 206.089C389.266 206.089 391.001 203.458 391.001 200.239C391.001 196.908 389.07 194.641 386.103 194.641C383.136 194.641 381.205 196.908 381.205 200.239C381.205 204.046 383.416 206.089 386.103 206.089ZM397.903 207.796H395.58V192.961H397.427L397.651 195.257C398.659 193.661 400.59 192.626 402.717 192.626C404.956 192.626 406.636 193.773 407.392 195.564C408.343 193.829 410.387 192.626 412.654 192.626C415.789 192.626 417.804 194.837 417.804 197.86V207.796H415.481V197.944C415.481 195.956 414.249 194.669 412.262 194.669C409.491 194.669 407.867 196.516 407.839 198.783V207.796H405.544V197.944C405.544 195.956 404.313 194.669 402.325 194.669C399.554 194.669 397.931 196.516 397.903 198.783V207.796ZM422.921 207.796H420.598V192.961H422.446L422.669 195.257C423.677 193.661 425.608 192.626 427.736 192.626C429.975 192.626 431.654 193.773 432.41 195.564C433.362 193.829 435.405 192.626 437.672 192.626C440.807 192.626 442.822 194.837 442.822 197.86V207.796H440.499V197.944C440.499 195.956 439.268 194.669 437.28 194.669C434.509 194.669 432.886 196.516 432.858 198.783V207.796H430.563V197.944C430.563 195.956 429.331 194.669 427.344 194.669C424.573 194.669 422.949 196.516 422.921 198.783V207.796ZM451.019 208.104C447.408 208.104 445.337 205.893 445.337 202.87V192.961H447.66V202.786C447.66 204.913 449.144 206.061 451.243 206.061C454.014 206.061 455.525 204.214 455.553 201.974V192.961H457.876V207.796H456.029L455.833 205.557C454.854 207.236 453.062 208.104 451.019 208.104ZM463.173 207.796H460.85V192.961H462.697L462.921 195.229C463.929 193.661 465.86 192.626 468.071 192.626C471.262 192.626 473.389 194.697 473.389 197.972V207.796H471.066V198.056C471.066 195.984 469.723 194.669 467.483 194.669C464.824 194.669 463.201 196.516 463.173 198.783V207.796ZM477.367 190.47C476.388 190.47 475.632 189.715 475.632 188.735C475.632 187.755 476.388 187.027 477.367 187.027C478.347 187.027 479.075 187.755 479.075 188.735C479.075 189.715 478.347 190.47 477.367 190.47ZM478.515 207.796H476.192V192.961H478.515V207.796ZM489.2 207.796H487.549C484.666 207.796 483.126 206.313 483.126 203.57V194.921H480.383V192.961H483.126V187.895H485.45V192.961H489.452V194.921H485.45V203.57C485.45 205.053 486.177 205.837 487.549 205.837H489.2V207.796ZM493.142 213.394H490.763V211.435H493.142C494.653 211.435 495.297 210.903 495.633 210.008L496.445 207.796H495.885L490.007 192.961H492.498L497.312 205.473L501.959 192.961H504.338L497.676 210.903C497.06 212.527 495.689 213.394 493.142 213.394ZM75.6287 236.796H73.9772C71.0942 236.796 69.5548 235.313 69.5548 232.57L69.5548 223.921H66.8117V221.961H69.5548V216.895H71.878V221.961H75.8806V223.921H71.878V232.57C71.878 234.053 72.6057 234.837 73.9772 234.837H75.6287L75.6287 236.796ZM80.1859 236.796H77.8627L77.8627 215.804H80.1859V223.865C81.2495 222.521 83.0689 221.626 85.0842 221.626C88.2751 221.626 90.4023 223.697 90.4023 226.972V236.796H88.0791V227.056C88.0791 224.984 86.7356 223.669 84.6363 223.669C81.8373 223.669 80.2138 225.516 80.1859 227.783L80.1859 236.796ZM97.9892 237.02C94.6304 237.02 92.4751 235.285 92.4751 232.57C92.4751 229.155 95.778 228.511 98.745 228.203C101.012 227.979 102.972 228.007 103 226.804C102.972 224.928 101.432 223.613 99.1928 223.613C97.0376 223.613 95.3581 224.816 95.1062 226.58H92.811C93.0909 223.669 95.722 221.626 99.2488 221.626C102.916 221.626 105.267 223.809 105.267 226.944V234.165C105.267 234.641 105.519 234.893 106.022 234.893H106.862V236.796H105.547C103.951 236.796 103.111 236.069 103.111 234.697V234.249C102.244 235.957 100.564 237.02 97.9892 237.02ZM98.3251 235.033C101.096 235.033 103 233.269 103 230.806V228.875C102.356 229.743 100.704 229.911 98.8849 230.107C96.8416 230.33 94.7983 230.61 94.7983 232.514C94.7983 234.053 96.1979 235.033 98.3251 235.033ZM115.97 236.796H114.318C111.435 236.796 109.896 235.313 109.896 232.57V223.921H107.153V221.961H109.896V216.895H112.219V221.961H116.222V223.921H112.219V232.57C112.219 234.053 112.947 234.837 114.318 234.837H115.97V236.796ZM140.129 237.02C136.77 237.02 134.615 235.285 134.615 232.57C134.615 229.155 137.918 228.511 140.885 228.203C143.152 227.979 145.111 228.007 145.139 226.804C145.111 224.928 143.572 223.613 141.333 223.613C139.177 223.613 137.498 224.816 137.246 226.58H134.951C135.231 223.669 137.862 221.626 141.389 221.626C145.055 221.626 147.406 223.809 147.406 226.944V234.165C147.406 234.641 147.658 234.893 148.162 234.893H149.002V236.796H147.686C146.091 236.796 145.251 236.069 145.251 234.697V234.249C144.383 235.957 142.704 237.02 140.129 237.02ZM140.465 235.033C143.236 235.033 145.139 233.269 145.139 230.806V228.875C144.495 229.743 142.844 229.911 141.025 230.107C138.981 230.33 136.938 230.61 136.938 232.514C136.938 234.053 138.338 235.033 140.465 235.033ZM158.109 236.796H156.458C153.575 236.796 152.036 235.313 152.036 232.57V223.921H149.293V221.961H152.036V216.895H154.359V221.961H160.125V216.895H162.448V221.961H166.451V223.921H162.448V232.57C162.448 234.053 163.176 234.837 164.547 234.837H166.199V236.796H164.547C161.664 236.796 160.125 235.313 160.125 232.57V223.921H154.359V232.57C154.359 234.053 155.087 234.837 156.458 234.837H158.109V236.796ZM170.674 236.796H168.35V221.961H170.198L170.478 224.788C171.429 222.885 173.165 221.877 175.628 221.877H176.132V224.173H175.628C172.493 224.173 170.674 225.964 170.674 229.015V236.796ZM182.411 237.02C179.052 237.02 176.897 235.285 176.897 232.57C176.897 229.155 180.2 228.511 183.166 228.203C185.434 227.979 187.393 228.007 187.421 226.804C187.393 224.928 185.854 223.613 183.614 223.613C181.459 223.613 179.78 224.816 179.528 226.58H177.233C177.512 223.669 180.144 221.626 183.67 221.626C187.337 221.626 189.688 223.809 189.688 226.944V234.165C189.688 234.641 189.94 234.893 190.444 234.893H191.284V236.796H189.968C188.373 236.796 187.533 236.069 187.533 234.697V234.249C186.665 235.957 184.986 237.02 182.411 237.02ZM182.747 235.033C185.518 235.033 187.421 233.269 187.421 230.806V228.875C186.777 229.743 185.126 229.911 183.306 230.107C181.263 230.33 179.22 230.61 179.22 232.514C179.22 234.053 180.619 235.033 182.747 235.033ZM199.682 237.104C194.868 237.104 192.293 233.577 192.293 229.295C192.293 224.313 195.568 221.626 199.598 221.626C203.321 221.626 205.98 223.865 206.4 227.671H204.133C203.741 225.208 202.034 223.641 199.542 223.641C196.603 223.641 194.644 225.796 194.644 229.295C194.644 233.074 196.939 235.089 199.71 235.089C202.089 235.089 203.713 233.577 204.133 231.002H206.4C205.98 234.837 203.517 237.104 199.682 237.104ZM215.952 236.796H214.301C211.418 236.796 209.878 235.313 209.878 232.57V223.921H207.135V221.961H209.878V216.895H212.201V221.961H216.204V223.921H212.201V232.57C212.201 234.053 212.929 234.837 214.301 234.837H215.952V236.796ZM223.644 237.104C220.117 237.104 217.514 235.257 217.318 232.122H219.586C219.754 234.053 221.517 235.117 223.756 235.117C225.855 235.117 226.863 234.305 226.863 232.822C226.863 231.422 225.771 231.114 224.232 230.582L222.077 229.855C219.894 229.127 217.71 228.455 217.71 225.768C217.71 223.249 219.67 221.626 222.916 221.626C226.191 221.626 228.459 223.389 228.822 226.692H226.555C226.303 224.62 224.848 223.613 222.833 223.613C221.013 223.613 219.949 224.425 219.949 225.712C219.949 227.252 221.573 227.559 222.805 227.979L224.82 228.651C227.535 229.547 229.158 230.47 229.158 232.934C229.158 235.537 227.255 237.104 223.644 237.104ZM253.185 237.02C249.826 237.02 247.671 235.285 247.671 232.57C247.671 229.155 250.974 228.511 253.941 228.203C256.208 227.979 258.167 228.007 258.195 226.804C258.167 224.928 256.628 223.613 254.388 223.613C252.233 223.613 250.554 224.816 250.302 226.58H248.007C248.286 223.669 250.918 221.626 254.444 221.626C258.111 221.626 260.462 223.809 260.462 226.944V234.165C260.462 234.641 260.714 234.893 261.218 234.893H262.058V236.796H260.742C259.147 236.796 258.307 236.069 258.307 234.697V234.249C257.439 235.957 255.76 237.02 253.185 237.02ZM253.521 235.033C256.292 235.033 258.195 233.269 258.195 230.806V228.875C257.551 229.743 255.9 229.911 254.08 230.107C252.037 230.33 249.994 230.61 249.994 232.514C249.994 234.053 251.393 235.033 253.521 235.033ZM266.146 236.796H263.823V221.961H265.67L265.894 224.229C266.902 222.661 268.833 221.626 271.044 221.626C274.235 221.626 276.362 223.697 276.362 226.972V236.796H274.039V227.056C274.039 224.984 272.696 223.669 270.456 223.669C267.797 223.669 266.174 225.516 266.146 227.783V236.796ZM285.155 237.104C281.18 237.104 278.409 233.913 278.409 229.295C278.409 224.76 281.152 221.626 285.127 221.626C287.366 221.626 289.241 222.605 290.305 224.173V215.804H292.628V236.796H290.781L290.529 233.941C289.549 235.873 287.59 237.104 285.155 237.104ZM285.519 235.089C288.346 235.089 290.305 232.682 290.305 229.239C290.305 225.908 288.402 223.613 285.659 223.613C282.804 223.613 280.816 225.936 280.816 229.295C280.816 232.71 282.748 235.089 285.519 235.089ZM320.519 237.104C318.083 237.104 316.096 235.901 315.089 233.969L314.837 236.796H312.989V215.804H315.312V224.285C316.404 222.661 318.279 221.626 320.519 221.626C324.437 221.626 327.18 224.76 327.18 229.295C327.18 233.913 324.437 237.104 320.519 237.104ZM320.155 235.089C322.898 235.089 324.773 232.71 324.773 229.295C324.773 225.964 322.898 223.641 320.127 223.641C317.328 223.641 315.312 225.908 315.312 229.183C315.312 232.654 317.328 235.089 320.155 235.089ZM331.719 236.796H329.396V221.961H331.243L331.523 224.788C332.474 222.885 334.21 221.877 336.673 221.877H337.177V224.173H336.673C333.538 224.173 331.719 225.964 331.719 229.015V236.796ZM340.173 219.47C339.193 219.47 338.438 218.715 338.438 217.735C338.438 216.755 339.193 216.027 340.173 216.027C341.153 216.027 341.881 216.755 341.881 217.735C341.881 218.715 341.153 219.47 340.173 219.47ZM341.321 236.796H338.998V221.961H341.321V236.796ZM346.604 236.796H344.281V221.961H346.128L346.352 224.229C347.36 222.661 349.291 221.626 351.502 221.626C354.693 221.626 356.82 223.697 356.82 226.972V236.796H354.497V227.056C354.497 224.984 353.154 223.669 350.914 223.669C348.255 223.669 346.632 225.516 346.604 227.783V236.796ZM366.089 242.73C362.086 242.73 359.371 240.799 359.371 237.664H361.694C361.694 239.427 363.486 240.771 366.089 240.771C369.14 240.771 370.735 238.952 370.735 236.404V233.997C369.699 235.537 367.908 236.544 365.641 236.544C361.694 236.544 358.867 233.521 358.867 229.155C358.867 224.704 361.722 221.626 365.641 221.626C368.02 221.626 369.951 222.745 370.959 224.536L371.211 221.961H373.03V236.404C373.03 240.155 370.511 242.73 366.089 242.73ZM365.977 234.529C368.776 234.529 370.735 232.29 370.735 229.071C370.735 225.88 368.776 223.641 365.977 223.641C363.206 223.641 361.274 225.88 361.274 229.127C361.274 232.318 363.206 234.529 365.977 234.529ZM381.546 237.104C378.019 237.104 375.416 235.257 375.22 232.122H377.487C377.655 234.053 379.419 235.117 381.658 235.117C383.757 235.117 384.765 234.305 384.765 232.822C384.765 231.422 383.673 231.114 382.134 230.582L379.978 229.855C377.795 229.127 375.612 228.455 375.612 225.768C375.612 223.249 377.571 221.626 380.818 221.626C384.093 221.626 386.36 223.389 386.724 226.692H384.457C384.205 224.62 382.749 223.613 380.734 223.613C378.915 223.613 377.851 224.425 377.851 225.712C377.851 227.252 379.475 227.559 380.706 227.979L382.721 228.651C385.437 229.547 387.06 230.47 387.06 232.934C387.06 235.537 385.157 237.104 381.546 237.104ZM70.2265 265.796H67.9033V250.961H69.7507L69.9746 253.229C70.9823 251.661 72.9136 250.626 75.1248 250.626C78.3157 250.626 80.443 252.697 80.443 255.972V265.796H78.1198V256.056C78.1198 253.984 76.7763 252.669 74.5371 252.669C71.878 252.669 70.2545 254.516 70.2265 256.783V265.796ZM89.7953 266.104C85.4008 266.104 82.4898 262.885 82.4898 258.435C82.4898 253.369 85.7647 250.626 89.5154 250.626C93.602 250.626 96.2331 253.369 96.317 258.127V258.771H84.813C84.953 261.934 86.8003 264.089 89.7953 264.089C91.8666 264.089 93.378 263.053 93.9938 261.122H96.2611C95.5893 264.173 93.1821 266.104 89.7953 266.104ZM84.953 256.839H93.8819C93.462 254.236 91.8946 252.641 89.5154 252.641C87.1642 252.641 85.4288 254.18 84.953 256.839ZM103.968 265.796H101.393L96.9982 250.961H99.3774L102.792 262.913L106.095 250.961H108.11L111.413 262.857L114.8 250.961H117.179L112.785 265.796H110.238L107.103 254.488L103.968 265.796ZM126.409 266.104C123.974 266.104 121.986 264.901 120.979 262.969L120.727 265.796H118.879L118.879 244.804H121.203L121.203 253.285C122.294 251.661 124.17 250.626 126.409 250.626C130.327 250.626 133.071 253.76 133.071 258.295C133.071 262.913 130.327 266.104 126.409 266.104ZM126.045 264.089C128.788 264.089 130.663 261.71 130.663 258.295C130.663 254.964 128.788 252.641 126.017 252.641C123.218 252.641 121.203 254.908 121.203 258.183C121.203 261.654 123.218 264.089 126.045 264.089ZM136.461 248.47C135.482 248.47 134.726 247.715 134.726 246.735C134.726 245.755 135.482 245.027 136.461 245.027C137.441 245.027 138.169 245.755 138.169 246.735C138.169 247.715 137.441 248.47 136.461 248.47ZM137.609 265.796H135.286V250.961H137.609V265.796ZM147.119 266.104C142.724 266.104 139.813 262.885 139.813 258.435C139.813 253.369 143.088 250.626 146.839 250.626C150.925 250.626 153.556 253.369 153.64 258.127V258.771H142.136C142.276 261.934 144.124 264.089 147.119 264.089C149.19 264.089 150.701 263.053 151.317 261.122H153.584C152.913 264.173 150.505 266.104 147.119 266.104ZM142.276 256.839H151.205C150.785 254.236 149.218 252.641 146.839 252.641C144.488 252.641 142.752 254.18 142.276 256.839ZM174.519 266.104C170.992 266.104 168.389 264.257 168.193 261.122H170.46C170.628 263.053 172.392 264.117 174.631 264.117C176.73 264.117 177.738 263.305 177.738 261.822C177.738 260.422 176.646 260.114 175.107 259.582L172.952 258.855C170.768 258.127 168.585 257.455 168.585 254.768C168.585 252.249 170.544 250.626 173.791 250.626C177.066 250.626 179.333 252.389 179.697 255.692H177.43C177.178 253.62 175.723 252.613 173.707 252.613C171.888 252.613 170.824 253.425 170.824 254.712C170.824 256.252 172.448 256.559 173.679 256.979L175.695 257.651C178.41 258.547 180.033 259.47 180.033 261.934C180.033 264.537 178.13 266.104 174.519 266.104ZM184.458 265.796H182.134V244.804H184.458V258.267L191.679 250.961H194.478L189.132 256.364L195.29 265.796H192.575L187.537 257.987L184.458 261.094V265.796ZM197.584 248.47C196.605 248.47 195.849 247.715 195.849 246.735C195.849 245.755 196.605 245.027 197.584 245.027C198.564 245.027 199.292 245.755 199.292 246.735C199.292 247.715 198.564 248.47 197.584 248.47ZM198.732 265.796H196.409V250.961L198.732 250.961V265.796ZM204.071 271.394H201.748V250.961H203.595L203.847 253.648C204.911 251.801 206.87 250.626 209.277 250.626C213.196 250.626 215.939 253.76 215.939 258.295C215.939 262.913 213.196 266.104 209.277 266.104C207.01 266.104 205.135 265.069 204.071 263.333V271.394ZM208.913 264.089C211.656 264.089 213.532 261.71 213.532 258.295C213.532 254.964 211.656 252.641 208.885 252.641C206.086 252.641 204.071 254.908 204.071 258.183C204.071 261.654 206.086 264.089 208.913 264.089ZM220.534 271.394H218.211V250.961H220.058L220.31 253.648C221.374 251.801 223.333 250.626 225.74 250.626C229.659 250.626 232.402 253.76 232.402 258.295C232.402 262.913 229.659 266.104 225.74 266.104C223.473 266.104 221.597 265.069 220.534 263.333V271.394ZM225.376 264.089C228.119 264.089 229.995 261.71 229.995 258.295C229.995 254.964 228.119 252.641 225.348 252.641C222.549 252.641 220.534 254.908 220.534 258.183C220.534 261.654 222.549 264.089 225.376 264.089ZM241.167 266.104C236.773 266.104 233.862 262.885 233.862 258.435C233.862 253.369 237.137 250.626 240.887 250.626C244.974 250.626 247.605 253.369 247.689 258.127V258.771H236.185C236.325 261.934 238.172 264.089 241.167 264.089C243.239 264.089 244.75 263.053 245.366 261.122H247.633C246.961 264.173 244.554 266.104 241.167 266.104ZM236.325 256.839H245.254C244.834 254.236 243.267 252.641 240.887 252.641C238.536 252.641 236.801 254.18 236.325 256.839ZM252.228 265.796H249.905V250.961H251.752L252.032 253.788C252.984 251.885 254.719 250.877 257.183 250.877H257.686V253.173H257.183C254.048 253.173 252.228 254.964 252.228 258.015V265.796ZM264.721 266.104C261.194 266.104 258.591 264.257 258.395 261.122H260.663C260.831 263.053 262.594 264.117 264.833 264.117C266.932 264.117 267.94 263.305 267.94 261.822C267.94 260.422 266.848 260.114 265.309 259.582L263.154 258.855C260.97 258.127 258.787 257.455 258.787 254.768C258.787 252.249 260.747 250.626 263.993 250.626C267.268 250.626 269.536 252.389 269.899 255.692H267.632C267.38 253.62 265.925 252.613 263.909 252.613C262.09 252.613 261.026 253.425 261.026 254.712C261.026 256.252 262.65 256.559 263.881 256.979L265.897 257.651C268.612 258.547 270.235 259.47 270.235 261.934C270.235 264.537 268.332 266.104 264.721 266.104ZM293.098 265.796H291.447C288.564 265.796 287.025 264.313 287.025 261.57V252.921L284.281 252.921V250.961L287.025 250.961V245.895H289.348V250.961H293.35V252.921H289.348V261.57C289.348 263.053 290.075 263.837 291.447 263.837H293.098V265.796ZM301.415 266.104C296.656 266.104 294.137 262.717 294.137 258.239C294.137 253.285 297.384 250.626 301.415 250.626C306.145 250.626 308.692 254.04 308.692 258.239C308.692 263.361 305.585 266.104 301.415 266.104ZM301.415 264.089C304.578 264.089 306.313 261.458 306.313 258.239C306.313 254.908 304.382 252.641 301.415 252.641C298.448 252.641 296.517 254.908 296.517 258.239C296.517 262.046 298.728 264.089 301.415 264.089ZM321.881 266.104C318.354 266.104 315.751 264.257 315.555 261.122H317.822C317.99 263.053 319.753 264.117 321.993 264.117C324.092 264.117 325.099 263.305 325.099 261.822C325.099 260.422 324.008 260.114 322.468 259.582L320.313 258.855C318.13 258.127 315.947 257.455 315.947 254.768C315.947 252.249 317.906 250.626 321.153 250.626C324.428 250.626 326.695 252.389 327.059 255.692H324.792C324.54 253.62 323.084 252.613 321.069 252.613C319.249 252.613 318.186 253.425 318.186 254.712C318.186 256.252 319.809 256.559 321.041 256.979L323.056 257.651C325.771 258.547 327.395 259.47 327.395 261.934C327.395 264.537 325.491 266.104 321.881 266.104ZM334.814 266.104C331.203 266.104 329.132 263.893 329.132 260.87V250.961H331.455V260.786C331.455 262.913 332.939 264.061 335.038 264.061C337.809 264.061 339.321 262.214 339.349 259.974V250.961H341.672V265.796H339.824L339.628 263.557C338.649 265.236 336.857 266.104 334.814 266.104ZM347.024 271.394H344.701V250.961H346.548L346.8 253.648C347.864 251.801 349.823 250.626 352.23 250.626C356.149 250.626 358.892 253.76 358.892 258.295C358.892 262.913 356.149 266.104 352.23 266.104C349.963 266.104 348.088 265.069 347.024 263.333V271.394ZM351.866 264.089C354.609 264.089 356.485 261.71 356.485 258.295C356.485 254.964 354.609 252.641 351.838 252.641C349.039 252.641 347.024 254.908 347.024 258.183C347.024 261.654 349.039 264.089 351.866 264.089ZM363.487 271.394H361.164V250.961H363.011L363.263 253.648C364.327 251.801 366.286 250.626 368.693 250.626C372.612 250.626 375.355 253.76 375.355 258.295C375.355 262.913 372.612 266.104 368.693 266.104C366.426 266.104 364.551 265.069 363.487 263.333V271.394ZM368.329 264.089C371.072 264.089 372.948 261.71 372.948 258.295C372.948 254.964 371.072 252.641 368.301 252.641C365.502 252.641 363.487 254.908 363.487 258.183C363.487 261.654 365.502 264.089 368.329 264.089ZM384.092 266.104C379.334 266.104 376.815 262.717 376.815 258.239C376.815 253.285 380.062 250.626 384.092 250.626C388.823 250.626 391.37 254.04 391.37 258.239C391.37 263.361 388.263 266.104 384.092 266.104ZM384.092 264.089C387.255 264.089 388.991 261.458 388.991 258.239C388.991 254.908 387.059 252.641 384.092 252.641C381.125 252.641 379.194 254.908 379.194 258.239C379.194 262.046 381.405 264.089 384.092 264.089ZM395.892 265.796H393.569V250.961H395.416L395.696 253.788C396.648 251.885 398.383 250.877 400.846 250.877H401.35V253.173H400.846C397.711 253.173 395.892 254.964 395.892 258.015V265.796ZM410.896 265.796H409.245C406.362 265.796 404.822 264.313 404.822 261.57V252.921H402.079V250.961H404.822V245.895H407.145V250.961H411.148V252.921H407.145V261.57C407.145 263.053 407.873 263.837 409.245 263.837H410.896V265.796ZM416.825 261.57L413.774 270.918L411.899 270.331L414.838 260.954L416.825 261.57ZM437.921 266.104C434.395 266.104 431.791 264.257 431.596 261.122H433.863C434.031 263.053 435.794 264.117 438.033 264.117C440.133 264.117 441.14 263.305 441.14 261.822C441.14 260.422 440.049 260.114 438.509 259.582L436.354 258.855C434.171 258.127 431.987 257.455 431.987 254.768C431.987 252.249 433.947 250.626 437.194 250.626C440.469 250.626 442.736 252.389 443.1 255.692H440.832C440.58 253.62 439.125 252.613 437.11 252.613C435.29 252.613 434.227 253.425 434.227 254.712C434.227 256.252 435.85 256.559 437.082 256.979L439.097 257.651C441.812 258.547 443.435 259.47 443.435 261.934C443.435 264.537 441.532 266.104 437.921 266.104ZM447.86 265.796H445.537V244.804H447.86V252.865C448.924 251.521 450.743 250.626 452.758 250.626C455.949 250.626 458.076 252.697 458.076 255.972V265.796H455.753V256.056C455.753 253.984 454.41 252.669 452.31 252.669C449.511 252.669 447.888 254.516 447.86 256.783V265.796ZM465.663 266.02C462.304 266.02 460.149 264.285 460.149 261.57C460.149 258.155 463.452 257.511 466.419 257.203C468.686 256.979 470.646 257.007 470.674 255.804C470.646 253.928 469.106 252.613 466.867 252.613C464.712 252.613 463.032 253.816 462.78 255.58H460.485C460.765 252.669 463.396 250.626 466.923 250.626C470.59 250.626 472.941 252.809 472.941 255.944V263.165C472.941 263.641 473.193 263.893 473.697 263.893H474.536V265.796H473.221C471.625 265.796 470.786 265.069 470.786 263.697V263.249C469.918 264.957 468.238 266.02 465.663 266.02ZM465.999 264.033C468.77 264.033 470.674 262.269 470.674 259.806V257.875C470.03 258.743 468.378 258.911 466.559 259.107C464.516 259.33 462.472 259.61 462.472 261.514C462.472 263.053 463.872 264.033 465.999 264.033ZM478.624 265.796H476.301V250.961H478.149L478.428 253.788C479.38 251.885 481.115 250.877 483.579 250.877H484.082V253.173H483.579C480.444 253.173 478.624 254.964 478.624 258.015V265.796ZM491.77 266.104C487.375 266.104 484.464 262.885 484.464 258.435C484.464 253.369 487.739 250.626 491.49 250.626C495.576 250.626 498.207 253.369 498.291 258.127V258.771H486.787C486.927 261.934 488.775 264.089 491.77 264.089C493.841 264.089 495.352 263.053 495.968 261.122H498.235C497.564 264.173 495.156 266.104 491.77 266.104ZM486.927 256.839H495.856C495.436 254.236 493.869 252.641 491.49 252.641C489.138 252.641 487.403 254.18 486.927 256.839ZM503.521 261.57L500.47 270.918L498.594 270.331L501.533 260.954L503.521 261.57ZM72.6897 295.02C69.3308 295.02 67.1756 293.285 67.1756 290.57C67.1756 287.155 70.4785 286.511 73.4454 286.203C75.7126 285.979 77.672 286.007 77.7 284.804C77.672 282.928 76.1325 281.613 73.8933 281.613C71.738 281.613 70.0586 282.816 69.8067 284.58H67.5115C67.7914 281.669 70.4225 279.626 73.9493 279.626C77.616 279.626 79.9672 281.809 79.9672 284.944V292.165C79.9672 292.641 80.2191 292.893 80.7229 292.893H81.5626V294.796H80.2471C78.6516 294.796 77.8119 294.069 77.8119 292.697V292.249C76.9442 293.957 75.2648 295.02 72.6897 295.02ZM73.0256 293.033C75.7966 293.033 77.7 291.269 77.7 288.806V286.875C77.0562 287.743 75.4048 287.911 73.5854 288.107C71.5421 288.33 69.4988 288.61 69.4988 290.514C69.4988 292.053 70.8983 293.033 73.0256 293.033ZM85.6507 294.796H83.3275V279.961H85.1749L85.3988 282.229C86.4065 280.661 88.3378 279.626 90.5491 279.626C93.74 279.626 95.8672 281.697 95.8672 284.972V294.796H93.544V285.056C93.544 282.984 92.2005 281.669 89.9613 281.669C87.3022 281.669 85.6787 283.516 85.6507 285.783V294.796ZM104.66 295.104C100.685 295.104 97.914 291.913 97.914 287.295C97.914 282.76 100.657 279.626 104.632 279.626C106.871 279.626 108.746 280.605 109.81 282.173V273.804H112.133V294.796H110.286L110.034 291.941C109.054 293.873 107.095 295.104 104.66 295.104ZM105.024 293.089C107.851 293.089 109.81 290.682 109.81 287.239C109.81 283.908 107.907 281.613 105.164 281.613C102.308 281.613 100.321 283.936 100.321 287.295C100.321 290.71 102.253 293.089 105.024 293.089ZM126.878 294.796H124.555V281.921H121.812V279.961H124.555V277.89C124.555 275.231 126.039 273.804 128.782 273.804H132.084V275.763H128.782C127.55 275.763 126.878 276.519 126.878 277.89V279.961H131.693V281.921H126.878V294.796ZM139.437 295.104C134.679 295.104 132.16 291.717 132.16 287.239C132.16 282.285 135.407 279.626 139.437 279.626C144.168 279.626 146.715 283.04 146.715 287.239C146.715 292.361 143.608 295.104 139.437 295.104ZM139.437 293.089C142.6 293.089 144.336 290.458 144.336 287.239C144.336 283.908 142.404 281.641 139.437 281.641C136.47 281.641 134.539 283.908 134.539 287.239C134.539 291.046 136.75 293.089 139.437 293.089ZM154.456 295.104C150.929 295.104 148.326 293.257 148.13 290.122H150.397C150.565 292.053 152.329 293.117 154.568 293.117C156.667 293.117 157.675 292.305 157.675 290.822C157.675 289.422 156.583 289.114 155.044 288.582L152.888 287.855C150.705 287.127 148.522 286.455 148.522 283.768C148.522 281.249 150.481 279.626 153.728 279.626C157.003 279.626 159.27 281.389 159.634 284.692H157.367C157.115 282.62 155.659 281.613 153.644 281.613C151.825 281.613 150.761 282.425 150.761 283.712C150.761 285.252 152.385 285.559 153.616 285.979L155.632 286.651C158.347 287.547 159.97 288.47 159.97 290.934C159.97 293.537 158.067 295.104 154.456 295.104ZM169.33 294.796H167.679C164.795 294.796 163.256 293.313 163.256 290.57V281.921H160.513V279.961H163.256V274.895H165.579V279.961H169.582V281.921H165.579V290.57C165.579 292.053 166.307 292.837 167.679 292.837H169.33V294.796ZM177.674 295.104C173.28 295.104 170.369 291.885 170.369 287.435C170.369 282.369 173.644 279.626 177.394 279.626C181.481 279.626 184.112 282.369 184.196 287.127V287.771H172.692C172.832 290.934 174.679 293.089 177.674 293.089C179.746 293.089 181.257 292.053 181.873 290.122H184.14C183.468 293.173 181.061 295.104 177.674 295.104ZM172.832 285.839H181.761C181.341 283.236 179.774 281.641 177.394 281.641C175.043 281.641 173.308 283.18 172.832 285.839ZM188.735 294.796H186.412V279.961H188.259L188.539 282.788C189.491 280.885 191.226 279.877 193.69 279.877H194.193V282.173H193.69C190.555 282.173 188.735 283.964 188.735 287.015V294.796ZM211.456 294.796H209.804C206.921 294.796 205.382 293.313 205.382 290.57V281.921H202.639V279.961H205.382V274.895H207.705V279.961H211.708V281.921H207.705V290.57C207.705 292.053 208.433 292.837 209.804 292.837H211.456V294.796ZM216.013 294.796H213.69L213.69 273.804H216.013L216.013 281.865C217.077 280.521 218.896 279.626 220.911 279.626C224.102 279.626 226.229 281.697 226.229 284.972V294.796H223.906V285.056C223.906 282.984 222.563 281.669 220.463 281.669C217.664 281.669 216.041 283.516 216.013 285.783V294.796ZM235.58 295.104C231.185 295.104 228.274 291.885 228.274 287.435C228.274 282.369 231.549 279.626 235.3 279.626C239.386 279.626 242.017 282.369 242.101 287.127V287.771H230.597C230.737 290.934 232.585 293.089 235.58 293.089C237.651 293.089 239.162 292.053 239.778 290.122H242.045C241.374 293.173 238.966 295.104 235.58 295.104ZM230.737 285.839H239.666C239.246 283.236 237.679 281.641 235.3 281.641C232.949 281.641 231.213 283.18 230.737 285.839ZM245.493 277.47C244.513 277.47 243.758 276.715 243.758 275.735C243.758 274.755 244.513 274.027 245.493 274.027C246.473 274.027 247.2 274.755 247.2 275.735C247.2 276.715 246.473 277.47 245.493 277.47ZM246.641 294.796H244.317V279.961H246.641V294.796ZM251.924 294.796H249.601V279.961H251.448L251.728 282.788C252.68 280.885 254.415 279.877 256.878 279.877H257.382V282.173H256.878C253.743 282.173 251.924 283.964 251.924 287.015V294.796ZM268.095 277.47C267.115 277.47 266.359 276.715 266.359 275.735C266.359 274.755 267.115 274.027 268.095 274.027C269.074 274.027 269.802 274.755 269.802 275.735C269.802 276.715 269.074 277.47 268.095 277.47ZM269.242 294.796H266.919V279.961H269.242V294.796ZM274.525 294.796H272.202V279.961H274.049L274.273 282.229C275.281 280.661 277.212 279.626 279.424 279.626C282.614 279.626 284.742 281.697 284.742 284.972V294.796H282.419V285.056C282.419 282.984 281.075 281.669 278.836 281.669C276.177 281.669 274.553 283.516 274.525 285.783V294.796ZM294.996 294.796H293.345C290.462 294.796 288.922 293.313 288.922 290.57V281.921L286.179 281.921V279.961L288.922 279.961V274.895H291.246V279.961H295.248V281.921H291.246V290.57C291.246 292.053 291.973 292.837 293.345 292.837H294.996V294.796ZM303.341 295.104C298.946 295.104 296.035 291.885 296.035 287.435C296.035 282.369 299.31 279.626 303.061 279.626C307.147 279.626 309.778 282.369 309.862 287.127V287.771H298.358C298.498 290.934 300.346 293.089 303.341 293.089C305.412 293.089 306.923 292.053 307.539 290.122H309.806C309.135 293.173 306.727 295.104 303.341 295.104ZM298.498 285.839H307.427C307.007 283.236 305.44 281.641 303.061 281.641C300.71 281.641 298.974 283.18 298.498 285.839ZM314.402 294.796H312.078V279.961H313.926L314.206 282.788C315.157 280.885 316.893 279.877 319.356 279.877H319.86V282.173H319.356C316.221 282.173 314.402 283.964 314.402 287.015V294.796ZM327.547 295.104C323.152 295.104 320.241 291.885 320.241 287.435C320.241 282.369 323.516 279.626 327.267 279.626C331.354 279.626 333.985 282.369 334.069 287.127V287.771H322.565C322.705 290.934 324.552 293.089 327.547 293.089C329.618 293.089 331.13 292.053 331.745 290.122H334.013C333.341 293.173 330.934 295.104 327.547 295.104ZM322.705 285.839H331.633C331.214 283.236 329.646 281.641 327.267 281.641C324.916 281.641 323.18 283.18 322.705 285.839ZM341.827 295.104C338.3 295.104 335.697 293.257 335.501 290.122H337.768C337.936 292.053 339.699 293.117 341.939 293.117C344.038 293.117 345.046 292.305 345.046 290.822C345.046 289.422 343.954 289.114 342.415 288.582L340.259 287.855C338.076 287.127 335.893 286.455 335.893 283.768C335.893 281.249 337.852 279.626 341.099 279.626C344.374 279.626 346.641 281.389 347.005 284.692H344.738C344.486 282.62 343.03 281.613 341.015 281.613C339.196 281.613 338.132 282.425 338.132 283.712C338.132 285.252 339.755 285.559 340.987 285.979L343.002 286.651C345.717 287.547 347.341 288.47 347.341 290.934C347.341 293.537 345.437 295.104 341.827 295.104ZM356.701 294.796H355.049C352.166 294.796 350.627 293.313 350.627 290.57V281.921H347.884V279.961H350.627V274.895H352.95V279.961H356.953V281.921H352.95V290.57C352.95 292.053 353.678 292.837 355.049 292.837H356.701V294.796ZM367.743 277.47C366.763 277.47 366.007 276.715 366.007 275.735C366.007 274.755 366.763 274.027 367.743 274.027C368.722 274.027 369.45 274.755 369.45 275.735C369.45 276.715 368.722 277.47 367.743 277.47ZM368.89 294.796H366.567V279.961H368.89V294.796ZM374.173 294.796H371.85V279.961H373.698L373.921 282.229C374.929 280.661 376.86 279.626 379.072 279.626C382.263 279.626 384.39 281.697 384.39 284.972V294.796H382.067V285.056C382.067 282.984 380.723 281.669 378.484 281.669C375.825 281.669 374.201 283.516 374.173 285.783V294.796ZM394.431 300.394H392.052V298.435H394.431C395.942 298.435 396.586 297.903 396.922 297.008L397.734 294.796H397.174L391.296 279.961H393.787L398.601 292.473L403.248 279.961H405.627L398.965 297.903C398.35 299.527 396.978 300.394 394.431 300.394ZM411.511 295.02C408.152 295.02 405.997 293.285 405.997 290.57C405.997 287.155 409.299 286.511 412.266 286.203C414.534 285.979 416.493 286.007 416.521 284.804C416.493 282.928 414.954 281.613 412.714 281.613C410.559 281.613 408.88 282.816 408.628 284.58H406.333C406.612 281.669 409.244 279.626 412.77 279.626C416.437 279.626 418.788 281.809 418.788 284.944V292.165C418.788 292.641 419.04 292.893 419.544 292.893H420.384V294.796H419.068C417.473 294.796 416.633 294.069 416.633 292.697V292.249C415.765 293.957 414.086 295.02 411.511 295.02ZM411.847 293.033C414.618 293.033 416.521 291.269 416.521 288.806V286.875C415.877 287.743 414.226 287.911 412.406 288.107C410.363 288.33 408.32 288.61 408.32 290.514C408.32 292.053 409.719 293.033 411.847 293.033ZM428.782 295.104C423.968 295.104 421.393 291.577 421.393 287.295C421.393 282.313 424.668 279.626 428.698 279.626C432.421 279.626 435.08 281.865 435.5 285.671H433.233C432.841 283.208 431.133 281.641 428.642 281.641C425.703 281.641 423.744 283.796 423.744 287.295C423.744 291.074 426.039 293.089 428.81 293.089C431.189 293.089 432.813 291.577 433.233 289.002H435.5C435.08 292.837 432.617 295.104 428.782 295.104ZM440.117 294.796H437.793V273.804H440.117V281.865C441.18 280.521 443 279.626 445.015 279.626C448.206 279.626 450.333 281.697 450.333 284.972V294.796H448.01V285.056C448.01 282.984 446.666 281.669 444.567 281.669C441.768 281.669 440.145 283.516 440.117 285.783V294.796ZM460.586 294.796H458.934C456.051 294.796 454.512 293.313 454.512 290.57V281.921H451.769V279.961H454.512V274.895H456.835V279.961H460.838V281.921H456.835V290.57C456.835 292.053 457.563 292.837 458.934 292.837H460.586V294.796ZM463.911 277.47C462.932 277.47 462.176 276.715 462.176 275.735C462.176 274.755 462.932 274.027 463.911 274.027C464.891 274.027 465.619 274.755 465.619 275.735C465.619 276.715 464.891 277.47 463.911 277.47ZM465.059 294.796H462.736V279.961H465.059V294.796ZM470.342 294.796H468.019V279.961H469.866L470.09 282.229C471.098 280.661 473.029 279.626 475.24 279.626C478.431 279.626 480.559 281.697 480.559 284.972V294.796H478.235V285.056C478.235 282.984 476.892 281.669 474.653 281.669C471.993 281.669 470.37 283.516 470.342 285.783V294.796ZM489.827 300.73C485.824 300.73 483.109 298.799 483.109 295.664H485.432C485.432 297.427 487.224 298.771 489.827 298.771C492.878 298.771 494.473 296.952 494.473 294.404V291.997C493.438 293.537 491.646 294.544 489.379 294.544C485.432 294.544 482.605 291.521 482.605 287.155C482.605 282.704 485.46 279.626 489.379 279.626C491.758 279.626 493.689 280.745 494.697 282.536L494.949 279.961H496.768V294.404C496.768 298.155 494.249 300.73 489.827 300.73ZM489.715 292.529C492.514 292.529 494.473 290.29 494.473 287.071C494.473 283.88 492.514 281.641 489.715 281.641C486.944 281.641 485.012 283.88 485.012 287.127C485.012 290.318 486.944 292.529 489.715 292.529ZM503.521 290.57L500.47 299.918L498.594 299.331L501.533 289.954L503.521 290.57ZM75.6287 323.796H73.9772C71.0942 323.796 69.5548 322.313 69.5548 319.57L69.5548 310.921H66.8117V308.961H69.5548V303.895H71.878V308.961H75.8806V310.921H71.878L71.878 319.57C71.878 321.053 72.6057 321.837 73.9772 321.837H75.6287V323.796ZM80.1019 323.796H77.7787L77.7787 308.961H79.626L79.9059 311.788C80.8576 309.885 82.593 308.877 85.0562 308.877H85.56V311.173H85.0562C81.9213 311.173 80.1019 312.964 80.1019 316.015V323.796ZM91.839 324.02C88.4802 324.02 86.3249 322.285 86.3249 319.57C86.3249 316.155 89.6278 315.511 92.5948 315.203C94.862 314.979 96.8213 315.007 96.8493 313.804C96.8213 311.928 95.2818 310.613 93.0426 310.613C90.8873 310.613 89.2079 311.816 88.956 313.58H86.6608C86.9407 310.669 89.5718 308.626 93.0986 308.626C96.7653 308.626 99.1165 310.809 99.1165 313.944V321.165C99.1165 321.641 99.3684 321.893 99.8722 321.893H100.712V323.796H99.3964C97.801 323.796 96.9612 323.069 96.9612 321.697V321.249C96.0935 322.957 94.4141 324.02 91.839 324.02ZM92.1749 322.033C94.9459 322.033 96.8493 320.269 96.8493 317.806V315.875C96.2055 316.743 94.5541 316.911 92.7347 317.107C90.6914 317.33 88.6481 317.61 88.6481 319.514C88.6481 321.053 90.0476 322.033 92.1749 322.033ZM109.044 323.796H106.609L100.423 308.961H102.942L107.84 321.081L112.71 308.961H115.23L109.044 323.796ZM122.865 324.104C118.471 324.104 115.56 320.885 115.56 316.435C115.56 311.369 118.835 308.626 122.586 308.626C126.672 308.626 129.303 311.369 129.387 316.127V316.771H117.883C118.023 319.934 119.87 322.089 122.865 322.089C124.937 322.089 126.448 321.053 127.064 319.122H129.331C128.659 322.173 126.252 324.104 122.865 324.104ZM118.023 314.839H126.952C126.532 312.236 124.965 310.641 122.586 310.641C120.234 310.641 118.499 312.18 118.023 314.839ZM134.01 323.796H131.687L131.687 302.804H134.01L134.01 323.796ZM138.226 306.47C137.246 306.47 136.491 305.715 136.491 304.735C136.491 303.755 137.246 303.027 138.226 303.027C139.206 303.027 139.933 303.755 139.933 304.735C139.933 305.715 139.206 306.47 138.226 306.47ZM139.374 323.796H137.05L137.05 308.961H139.374L139.374 323.796ZM144.657 323.796H142.334L142.334 308.961H144.181L144.405 311.229C145.413 309.661 147.344 308.626 149.555 308.626C152.746 308.626 154.873 310.697 154.873 313.972L154.873 323.796H152.55L152.55 314.056C152.55 311.984 151.207 310.669 148.967 310.669C146.308 310.669 144.685 312.516 144.657 314.783L144.657 323.796ZM164.142 329.73C160.139 329.73 157.424 327.799 157.424 324.664H159.747C159.747 326.427 161.538 327.771 164.142 327.771C167.192 327.771 168.788 325.952 168.788 323.404V320.997C167.752 322.537 165.961 323.544 163.694 323.544C159.747 323.544 156.92 320.521 156.92 316.155C156.92 311.704 159.775 308.626 163.694 308.626C166.073 308.626 168.004 309.745 169.012 311.536L169.264 308.961H171.083L171.083 323.404C171.083 327.155 168.564 329.73 164.142 329.73ZM164.03 321.529C166.829 321.529 168.788 319.29 168.788 316.071C168.788 312.88 166.829 310.641 164.03 310.641C161.259 310.641 159.327 312.88 159.327 316.127C159.327 319.318 161.259 321.529 164.03 321.529ZM177.835 319.57L174.784 328.918L172.909 328.331L175.848 318.954L177.835 319.57ZM190.503 324.02C187.144 324.02 184.989 322.285 184.989 319.57C184.989 316.155 188.292 315.511 191.258 315.203C193.526 314.979 195.485 315.007 195.513 313.804C195.485 311.928 193.946 310.613 191.706 310.613C189.551 310.613 187.872 311.816 187.62 313.58H185.325C185.604 310.669 188.236 308.626 191.762 308.626C195.429 308.626 197.78 310.809 197.78 313.944V321.165C197.78 321.641 198.032 321.893 198.536 321.893H199.376V323.796H198.06C196.465 323.796 195.625 323.069 195.625 321.697V321.249C194.757 322.957 193.078 324.02 190.503 324.02ZM190.839 322.033C193.61 322.033 195.513 320.269 195.513 317.806V315.875C194.869 316.743 193.218 316.911 191.398 317.107C189.355 317.33 187.312 317.61 187.312 319.514C187.312 321.053 188.711 322.033 190.839 322.033ZM203.464 323.796H201.141V308.961H202.988L203.212 311.229C204.22 309.661 206.151 308.626 208.362 308.626C211.553 308.626 213.68 310.697 213.68 313.972V323.796H211.357V314.056C211.357 311.984 210.014 310.669 207.774 310.669C205.115 310.669 203.492 312.516 203.464 314.783V323.796ZM222.473 324.104C218.498 324.104 215.727 320.913 215.727 316.295C215.727 311.76 218.47 308.626 222.445 308.626C224.684 308.626 226.559 309.605 227.623 311.173V302.804H229.946V323.796H228.099L227.847 320.941C226.867 322.873 224.908 324.104 222.473 324.104ZM222.837 322.089C225.664 322.089 227.623 319.682 227.623 316.239C227.623 312.908 225.72 310.613 222.977 310.613C220.122 310.613 218.134 312.936 218.134 316.295C218.134 319.71 220.066 322.089 222.837 322.089ZM246.173 323.796H244.521C241.638 323.796 240.099 322.313 240.099 319.57V310.921H237.356V308.961H240.099V303.895H242.422V308.961H246.425V310.921H242.422V319.57C242.422 321.053 243.15 321.837 244.521 321.837H246.173V323.796ZM250.73 323.796H248.407V302.804H250.73V310.865C251.794 309.521 253.613 308.626 255.628 308.626C258.819 308.626 260.947 310.697 260.947 313.972V323.796H258.623V314.056C258.623 311.984 257.28 310.669 255.181 310.669C252.382 310.669 250.758 312.516 250.73 314.783V323.796ZM270.297 324.104C265.902 324.104 262.991 320.885 262.991 316.435C262.991 311.369 266.266 308.626 270.017 308.626C274.104 308.626 276.735 311.369 276.819 316.127V316.771H265.315C265.455 319.934 267.302 322.089 270.297 322.089C272.368 322.089 273.88 321.053 274.495 319.122H276.763C276.091 322.173 273.684 324.104 270.297 324.104ZM265.455 314.839H274.383C273.964 312.236 272.396 310.641 270.017 310.641C267.666 310.641 265.93 312.18 265.455 314.839ZM280.21 306.47C279.231 306.47 278.475 305.715 278.475 304.735C278.475 303.755 279.231 303.027 280.21 303.027C281.19 303.027 281.918 303.755 281.918 304.735C281.918 305.715 281.19 306.47 280.21 306.47ZM281.358 323.796H279.035V308.961H281.358V323.796ZM286.641 323.796H284.318V308.961H286.165L286.445 311.788C287.397 309.885 289.132 308.877 291.595 308.877H292.099V311.173H291.595C288.46 311.173 286.641 312.964 286.641 316.015V323.796Z" fill="white"/>
<path d="M402.544 236.796H400.892C398.009 236.796 396.47 235.313 396.47 232.57V223.921H393.727V221.961H396.47V216.895H398.793V221.961H402.795V223.921H398.793V232.57C398.793 234.053 399.521 234.837 400.892 234.837H402.544V236.796ZM434.179 237.104C429.421 237.104 426.902 233.717 426.902 229.239C426.902 224.285 430.148 221.626 434.179 221.626C438.909 221.626 441.457 225.04 441.457 229.239C441.457 234.361 438.35 237.104 434.179 237.104ZM434.179 235.089C437.342 235.089 439.077 232.458 439.077 229.239C439.077 225.908 437.146 223.641 434.179 223.641C431.212 223.641 429.281 225.908 429.281 229.239C429.281 233.046 431.492 235.089 434.179 235.089ZM450.121 242.73C446.119 242.73 443.404 240.799 443.404 237.664H445.727C445.727 239.427 447.518 240.771 450.121 240.771C453.172 240.771 454.768 238.952 454.768 236.404V233.997C453.732 235.537 451.941 236.544 449.673 236.544C445.727 236.544 442.9 233.521 442.9 229.155C442.9 224.704 445.755 221.626 449.673 221.626C452.053 221.626 453.984 222.745 454.992 224.536L455.244 221.961H457.063V236.404C457.063 240.155 454.544 242.73 450.121 242.73ZM450.009 234.529C452.808 234.529 454.768 232.29 454.768 229.071C454.768 225.88 452.808 223.641 450.009 223.641C447.238 223.641 445.307 225.88 445.307 229.127C445.307 232.318 447.238 234.529 450.009 234.529ZM466.586 237.104C462.192 237.104 459.281 233.885 459.281 229.435C459.281 224.369 462.556 221.626 466.306 221.626C470.393 221.626 473.024 224.369 473.108 229.127V229.771H461.604C461.744 232.934 463.591 235.089 466.586 235.089C468.658 235.089 470.169 234.053 470.785 232.122H473.052C472.38 235.173 469.973 237.104 466.586 237.104ZM461.744 227.839H470.673C470.253 225.236 468.686 223.641 466.306 223.641C463.955 223.641 462.22 225.18 461.744 227.839ZM487.615 237.104C483.22 237.104 480.309 233.885 480.309 229.435C480.309 224.369 483.584 221.626 487.335 221.626C491.421 221.626 494.052 224.369 494.136 229.127V229.771H482.632C482.772 232.934 484.62 235.089 487.615 235.089C489.686 235.089 491.197 234.053 491.813 232.122H494.08C493.409 235.173 491.002 237.104 487.615 237.104ZM482.772 227.839H491.701C491.281 225.236 489.714 223.641 487.335 223.641C484.984 223.641 483.248 225.18 482.772 227.839ZM498.676 236.796H496.353V221.961H498.2L498.48 224.788C499.431 222.885 501.167 221.877 503.63 221.877H504.134V224.173H503.63C500.495 224.173 498.676 225.964 498.676 229.015V236.796Z" fill="#1E02AF"/>
<path d="M408.784 237C408.249 237 407.874 236.839 407.446 236.411C406.91 235.875 406.643 235.126 406.643 234.43C406.643 232.288 408.356 230.146 411.301 226.398C412.104 225.38 412.961 224.309 413.871 223.238H412.854C411.944 223.238 411.73 222.917 411.73 222.221H414.675C419.119 216.705 423.564 210.976 423.564 209.369C424.688 209.798 425.116 210.762 425.116 211.404C425.116 212.743 421.689 217.134 417.727 222.274H420.137C420.833 222.274 420.886 222.649 420.886 223.024C419.601 223.078 418.316 223.131 416.977 223.185C415.746 224.791 414.461 226.451 413.229 228.111C409.909 232.556 408.463 234.805 408.517 236.143C411.944 236.143 417.566 230.896 419.548 228.379C419.655 228.432 419.708 228.539 419.708 228.647C419.708 229.718 412.104 237 408.784 237ZM426.328 221.953C428.255 222.703 428.737 223.452 428.737 224.202C428.737 226.558 426.435 230.307 423.757 232.984C421.455 235.286 419.045 237 417.653 237C416.528 237 415.565 235.768 415.565 233.894C415.565 229.664 421.776 222.06 426.328 221.953ZM423.168 232.395C425.631 229.932 427.934 226.237 427.934 224.202C427.934 223.72 427.827 223.452 427.613 223.238C424.561 223.613 417.439 232.181 417.171 235.715C417.278 235.929 417.439 236.036 417.706 236.036C419.045 236.036 421.08 234.483 423.168 232.395ZM440.021 224.095C440.021 223.774 439.968 223.56 439.807 223.292C436.808 223.667 428.08 231.967 427.812 235.715C427.919 235.929 428.187 236.09 428.562 236.09C429.579 236.09 432.257 234.376 434.827 231.806C435.898 230.735 437.022 229.61 438.04 228.379C439.057 227.147 440.021 225.541 440.021 224.095ZM417.371 253.653C414.532 253.653 413.033 251.404 413.033 249.798C413.033 248.245 413.515 247.281 414.747 246.05C415.282 245.514 416.353 244.925 416.889 244.925C417.424 244.925 417.799 245.086 417.799 245.353C417.799 245.675 417.478 245.996 417.317 246.157C416.46 247.013 414.8 249.691 414.8 250.762C415.068 252.261 415.603 252.636 416.835 252.636C420.53 252.636 428.026 243.586 432.417 237.107C434.024 234.751 435.363 232.77 436.487 231.163L435.363 232.288C432.632 235.019 429.954 237 428.669 237C427.223 237 426.259 235.661 426.259 233.68C426.259 229.718 434.024 222.06 438.522 222.007C440.396 222.703 440.824 223.506 440.824 224.095C440.824 224.309 440.824 224.577 440.771 224.791C441.467 223.72 441.735 223.185 441.949 222.756C443.288 223.238 443.288 224.095 443.288 224.791C443.288 225.809 442.056 227.201 432.739 240.641C429.419 245.407 422.618 253.653 417.371 253.653ZM446.704 229.396C448.096 229.396 450.72 228.111 452.22 226.612C453.29 225.541 453.987 224.577 453.987 224.041C453.987 223.56 453.933 223.345 453.826 223.238C452.005 223.399 448.739 226.237 446.276 229.396H446.704ZM453.88 231.592C450.881 234.59 446.169 237 444.08 237C442.313 237 441.349 236.197 441.349 233.841C441.349 229.396 448.096 222.06 452.648 221.953C454.147 222.489 454.79 222.917 454.79 224.041C454.79 224.952 453.88 226.023 452.916 226.987C451.202 228.7 448.471 230.039 446.651 230.039C446.276 230.039 446.008 230.039 445.794 229.985C444.241 232.074 443.063 234.216 442.956 235.768C443.063 235.929 443.331 236.09 443.973 236.09C446.383 236.09 451.041 233.627 454.094 230.574C454.95 229.718 455.647 228.968 456.129 228.325C456.236 228.379 456.289 228.486 456.289 228.593C456.289 228.968 455.325 230.146 453.88 231.592ZM453.969 237C453.434 237 453.059 236.839 452.631 236.411C452.095 235.875 451.828 235.126 451.828 234.43C451.828 232.288 453.541 230.146 456.486 226.398C457.289 225.38 458.146 224.309 459.056 223.238H458.039C457.129 223.238 456.915 222.917 456.915 222.221H459.86C464.304 216.705 468.749 210.976 468.749 209.369C469.873 209.798 470.301 210.762 470.301 211.404C470.301 212.743 466.874 217.134 462.912 222.274H465.322C466.018 222.274 466.071 222.649 466.071 223.024C464.786 223.078 463.501 223.131 462.162 223.185C460.931 224.791 459.646 226.451 458.414 228.111C455.094 232.556 453.648 234.805 453.702 236.143C457.129 236.143 462.751 230.896 464.733 228.379C464.84 228.432 464.893 228.539 464.893 228.647C464.893 229.718 457.289 237 453.969 237ZM470.924 237C470.549 237 470.12 236.839 469.746 236.465C469.156 235.875 468.942 235.126 468.942 234.323C468.942 230.949 477.189 224.791 476.653 223.078C476.653 223.078 476.278 222.971 476.064 222.971C474.779 222.971 471.62 225.005 467.175 229.61C465.301 231.592 462.891 234.269 460.75 237.054C460 237.054 459.09 236.09 459.09 235.126C459.09 234.269 463.159 228.325 475.743 212.422C479.545 207.656 480.509 205.514 480.509 204.979C481.687 205.407 482.061 206.371 482.061 207.013C482.061 207.977 480.241 210.762 479.438 211.779C473.976 218.687 467.978 226.13 465.462 230.039L465.515 230.253C465.944 229.771 466.372 229.343 466.8 228.914C470.763 224.845 474.19 222.328 476.011 222.328C476.974 222.328 477.938 223.078 477.938 224.47C477.938 227.897 470.763 234.055 470.816 236.143C473.387 236.143 479.009 230.896 480.991 228.379C481.098 228.432 481.151 228.539 481.151 228.647C481.151 229.718 473.654 237 470.924 237ZM482.397 229.396C483.789 229.396 486.413 228.111 487.912 226.612C488.983 225.541 489.679 224.577 489.679 224.041C489.679 223.56 489.626 223.345 489.519 223.238C487.698 223.399 484.432 226.237 481.969 229.396H482.397ZM489.572 231.592C486.574 234.59 481.861 237 479.773 237C478.006 237 477.042 236.197 477.042 233.841C477.042 229.396 483.789 222.06 488.341 221.953C489.84 222.489 490.483 222.917 490.483 224.041C490.483 224.952 489.572 226.023 488.608 226.987C486.895 228.7 484.164 230.039 482.343 230.039C481.969 230.039 481.701 230.039 481.487 229.985C479.934 232.074 478.756 234.216 478.649 235.768C478.756 235.929 479.023 236.09 479.666 236.09C482.076 236.09 486.734 233.627 489.787 230.574C490.643 229.718 491.339 228.968 491.821 228.325C491.928 228.379 491.982 228.486 491.982 228.593C491.982 228.968 491.018 230.146 489.572 231.592ZM487.895 237.054C486.985 237.054 486.449 236.036 486.449 234.912C486.449 233.412 493.036 225.594 493.946 222.863C495.178 223.345 495.231 224.202 495.231 224.898C495.231 225.701 494.053 227.736 492.447 229.985L492.5 230.253C494.803 227.361 497.427 224.309 498.176 223.56C498.98 222.756 499.836 222.007 500.532 222.007C501.389 222.007 501.657 222.596 501.657 223.667C501.657 224.47 501.068 225.648 499.783 226.344C499.354 226.023 499.087 225.541 499.087 225.112C499.301 224.256 500.051 223.56 500.586 223.238C500.532 222.917 500.479 222.81 500.318 222.81C500.104 222.81 499.462 223.292 498.605 224.149C496.409 226.344 490.733 233.412 487.895 237.054Z" fill="white"/>
<path d="M313.352 324C312.87 324 312.442 323.839 312.067 323.465C311.585 322.983 311.317 322.286 311.317 321.644C311.317 320.841 311.531 320.037 312.067 319.02L311.853 319.234C309.39 321.697 306.07 324 304.945 324C303.606 324 302.696 322.822 302.696 321.055C302.696 316.932 310.568 309.167 314.959 309.06C316.779 309.756 317.261 310.56 317.261 311.202C317.261 311.363 317.261 311.523 317.208 311.684C321.92 305.526 329.47 295.995 329.47 294.12C330.648 294.549 331.023 295.513 331.023 296.155C331.023 298.565 320.902 310.613 317.689 315.111C313.941 320.305 313.031 321.858 313.245 323.143C315.815 323.143 321.438 317.896 323.419 315.379C323.526 315.432 323.58 315.539 323.58 315.647C323.58 316.718 316.083 324 313.352 324ZM304.838 323.09C305.855 323.09 308.961 321.001 311.317 318.645C312.442 317.521 313.513 316.503 314.53 315.272L314.637 315.111C314.851 314.843 315.066 314.576 315.28 314.254C315.976 313.29 316.458 312.22 316.458 311.202C316.458 310.774 316.404 310.613 316.244 310.345C313.566 310.774 304.57 319.074 304.195 322.715C304.303 322.983 304.517 323.09 304.838 323.09ZM319.569 324.054C318.659 324.054 318.123 323.036 318.123 321.912C318.123 320.412 324.71 312.594 325.62 309.863C326.852 310.345 326.905 311.202 326.905 311.898C326.905 312.701 325.727 314.736 324.121 316.985L324.174 317.253C326.477 314.361 329.101 311.309 329.85 310.56C330.653 309.756 331.51 309.007 332.206 309.007C333.063 309.007 333.331 309.596 333.331 310.667C333.331 311.47 332.742 312.648 331.457 313.344C331.028 313.023 330.761 312.541 330.761 312.112C330.975 311.256 331.724 310.56 332.26 310.238C332.206 309.917 332.153 309.81 331.992 309.81C331.778 309.81 331.135 310.292 330.279 311.149C328.083 313.344 322.407 320.412 319.569 324.054ZM333.996 316.396C335.389 316.396 338.012 315.111 339.512 313.612C340.583 312.541 341.279 311.577 341.279 311.041C341.279 310.56 341.225 310.345 341.118 310.238C339.298 310.399 336.031 313.237 333.568 316.396H333.996ZM341.172 318.592C338.173 321.59 333.461 324 331.373 324C329.605 324 328.642 323.197 328.642 320.841C328.642 316.396 335.389 309.06 339.94 308.953C341.439 309.489 342.082 309.917 342.082 311.041C342.082 311.952 341.172 313.023 340.208 313.987C338.494 315.7 335.763 317.039 333.943 317.039C333.568 317.039 333.3 317.039 333.086 316.985C331.533 319.074 330.355 321.216 330.248 322.768C330.355 322.929 330.623 323.09 331.265 323.09C333.675 323.09 338.334 320.627 341.386 317.574C342.243 316.718 342.939 315.968 343.421 315.325C343.528 315.379 343.581 315.486 343.581 315.593C343.581 315.968 342.618 317.146 341.172 318.592ZM349.508 324C349.133 324 348.705 323.839 348.33 323.465C347.848 322.983 347.634 322.286 347.634 321.43C347.634 320.948 347.795 320.359 348.116 319.716C345.706 321.965 342.707 324 341.583 324C340.191 324 339.388 322.929 339.388 320.787C339.388 316.825 346.831 309.114 351.382 309.06C353.256 309.756 353.685 310.56 353.685 311.256C353.685 311.47 353.685 311.738 353.631 312.005C354.327 311.041 354.809 310.238 354.863 309.81C356.094 310.292 356.094 311.149 356.094 311.845C356.094 313.558 349.294 320.519 349.401 323.143C351.971 323.143 357.594 317.896 359.575 315.379C359.682 315.432 359.736 315.539 359.736 315.647C359.736 316.718 352.239 324 349.508 324ZM352.882 311.256C352.882 310.774 352.828 310.613 352.667 310.345C349.347 310.72 341.208 318.967 340.94 322.715C341.048 322.983 341.262 323.09 341.583 323.09C342.6 323.09 345.706 321.001 348.062 318.645C348.865 317.842 349.829 316.664 350.847 315.432C351.864 314.201 352.882 312.648 352.882 311.256ZM371.96 321.323C371.96 318.056 380.313 311.898 379.564 310.506C379.564 310.506 379.242 310.399 378.975 310.399C377.636 310.399 374.798 312.487 371.478 315.807C368.961 318.324 366.605 321.001 364.356 324.054C363.446 324.054 362.857 323.036 362.857 322.072C362.857 320.573 370.193 312.38 370.889 309.81C370.889 309.81 370.621 309.703 370.3 309.703C369.175 309.703 366.766 311.577 363.928 314.415C361.25 317.092 358.359 320.573 355.681 324.054C354.771 324.054 354.182 323.036 354.182 321.912C354.182 320.412 361.09 312.327 362 309.542C363.125 310.024 363.178 310.881 363.178 311.577C363.178 312.594 362 314.736 360.233 317.039L360.287 317.253C361.25 316.129 362.375 315.004 363.499 313.88C366.605 310.72 368.801 309.06 370.246 309.06C371.264 309.06 372.174 309.596 372.174 311.202C372.174 312.809 371.05 314.576 369.229 316.932L369.336 316.985C369.872 316.396 370.514 315.861 371.103 315.272C374.53 311.791 377.154 309.756 378.921 309.756C379.885 309.756 380.849 310.452 380.849 311.845C380.849 314.95 373.781 321.001 373.834 323.143C376.404 323.143 382.027 317.896 384.008 315.379C384.115 315.432 384.169 315.539 384.169 315.647C384.169 316.718 376.672 324 373.941 324C373.566 324 373.138 323.839 372.763 323.465C372.174 322.875 371.96 322.126 371.96 321.323ZM382.858 324C381.198 324 379.163 322.501 379.163 320.198C379.163 318.645 379.698 317.681 380.93 316.45C381.465 315.914 382.536 315.325 383.072 315.325C383.607 315.325 383.982 315.486 383.982 315.754C383.982 316.075 383.661 316.396 383.5 316.557C382.644 317.414 380.984 320.091 380.984 321.162C380.984 322.501 381.947 323.357 383.286 323.411C385.16 322.768 387.088 320.519 387.088 316.932C387.088 312.755 387.57 311.898 389.069 310.399C389.98 309.489 391.425 308.846 392.55 308.846C393.835 308.846 394.424 309.863 394.424 310.506C394.424 311.309 393.835 312.487 392.55 313.183C392.121 312.862 391.854 312.38 391.854 311.952C392.068 310.988 393.032 310.185 393.514 309.971C393.407 309.596 393.139 309.489 392.55 309.489C390.676 309.489 389.391 311.738 389.391 313.344C389.391 315.325 389.926 316.825 389.926 318.378C389.926 321.108 386.499 324 382.858 324ZM393.376 320.627C394.018 320.627 394.5 321.108 394.5 321.805C394.5 322.822 393.429 324 392.465 324C391.823 324 391.394 323.518 391.394 322.822C391.394 321.858 392.465 320.627 393.376 320.627Z" fill="white"/>
</svg>
